<mxfile host="app.diagrams.net" agent="Mozilla/5.0 (X11; Linux x86_64) AppleWebKit/537.36 (KHTML, like Gecko) Chrome/136.0.0.0 Safari/537.36" version="27.1.3">
  <diagram name="PÃ¡gina-1" id="j1BEiclgZVfxzD-rGpWf">
    <mxGraphModel grid="1" page="1" gridSize="10" guides="1" tooltips="1" connect="1" arrows="1" fold="1" pageScale="1" pageWidth="827" pageHeight="1169" math="0" shadow="0">
      <root>
        <mxCell id="0" />
        <mxCell id="1" parent="0" />
        <mxCell id="eOPFmJKDIx5pttfgIMO1-4" style="edgeStyle=orthogonalEdgeStyle;rounded=0;orthogonalLoop=1;jettySize=auto;html=1;exitX=0.75;exitY=1;exitDx=0;exitDy=0;entryX=0.5;entryY=0;entryDx=0;entryDy=0;" edge="1" parent="1" source="eOPFmJKDIx5pttfgIMO1-1" target="eOPFmJKDIx5pttfgIMO1-3">
          <mxGeometry relative="1" as="geometry" />
        </mxCell>
        <mxCell id="eOPFmJKDIx5pttfgIMO1-5" style="edgeStyle=orthogonalEdgeStyle;rounded=0;orthogonalLoop=1;jettySize=auto;html=1;exitX=0.25;exitY=1;exitDx=0;exitDy=0;entryX=0.5;entryY=0;entryDx=0;entryDy=0;" edge="1" parent="1" source="eOPFmJKDIx5pttfgIMO1-1" target="eOPFmJKDIx5pttfgIMO1-2">
          <mxGeometry relative="1" as="geometry" />
        </mxCell>
        <mxCell id="eOPFmJKDIx5pttfgIMO1-1" value="&lt;div style=&quot;background-color: rgb(30, 31, 34);&quot;&gt;&lt;pre style=&quot;&quot;&gt;&lt;div style=&quot;color: rgb(188, 190, 196); font-family: &amp;quot;JetBrains Mono&amp;quot;, monospace; text-align: left;&quot;&gt;&lt;span style=&quot;white-space: normal; color: rgb(179, 174, 96);&quot;&gt;#ifndef &lt;/span&gt;&lt;span style=&quot;white-space: normal;&quot;&gt;PERSONAJES_H&lt;/span&gt;&lt;/div&gt;&lt;span style=&quot;color: rgb(179, 174, 96); font-family: &amp;quot;JetBrains Mono&amp;quot;, monospace;&quot;&gt;&lt;div style=&quot;text-align: left;&quot;&gt;&lt;span style=&quot;white-space: normal;&quot;&gt;#define &lt;/span&gt;&lt;span style=&quot;color: rgb(188, 190, 196); white-space: normal;&quot;&gt;PERSONAJES_H&lt;/span&gt;&lt;/div&gt;&lt;/span&gt;&lt;span style=&quot;color: rgb(179, 174, 96); font-family: &amp;quot;JetBrains Mono&amp;quot;, monospace;&quot;&gt;&lt;div style=&quot;text-align: left;&quot;&gt;&lt;span style=&quot;white-space: normal;&quot;&gt;#include &lt;/span&gt;&lt;span style=&quot;white-space: normal; color: rgb(106, 171, 115);&quot;&gt;&amp;lt;bits/stdc++.h&amp;gt;&lt;/span&gt;&lt;/div&gt;&lt;/span&gt;&lt;div style=&quot;text-align: left;&quot;&gt;&lt;font face=&quot;JetBrains Mono, monospace&quot; color=&quot;#6aab73&quot;&gt;&lt;br&gt;&lt;/font&gt;&lt;/div&gt;&lt;span style=&quot;color: rgb(207, 142, 109); font-family: &amp;quot;JetBrains Mono&amp;quot;, monospace;&quot;&gt;&lt;div style=&quot;text-align: left;&quot;&gt;&lt;span style=&quot;white-space: normal;&quot;&gt;using namespace &lt;/span&gt;&lt;font style=&quot;white-space: normal;&quot; face=&quot;JetBrains Mono, monospace&quot; color=&quot;#bcbec4&quot;&gt;std;&lt;/font&gt;&lt;/div&gt;&lt;/span&gt;&lt;span style=&quot;color: rgb(207, 142, 109); font-family: &amp;quot;JetBrains Mono&amp;quot;, monospace;&quot;&gt;&lt;div style=&quot;text-align: left;&quot;&gt;&lt;span style=&quot;white-space: normal;&quot;&gt;class &lt;/span&gt;&lt;font style=&quot;white-space: normal;&quot; face=&quot;JetBrains Mono, monospace&quot; color=&quot;#bcbec4&quot;&gt;personajes {&lt;/font&gt;&lt;/div&gt;&lt;/span&gt;&lt;font face=&quot;JetBrains Mono, monospace&quot; color=&quot;#bcbec4&quot;&gt;&lt;div style=&quot;text-align: left;&quot;&gt;&lt;font style=&quot;white-space: normal;&quot; face=&quot;JetBrains Mono, monospace&quot; color=&quot;#bcbec4&quot;&gt;    &lt;/font&gt;&lt;span style=&quot;white-space: normal; color: rgb(111, 115, 122);&quot;&gt;private:&lt;/span&gt;&lt;/div&gt;&lt;/font&gt;&lt;span style=&quot;color: rgb(111, 115, 122); font-family: &amp;quot;JetBrains Mono&amp;quot;, monospace;&quot;&gt;&lt;div style=&quot;text-align: left;&quot;&gt;&lt;span style=&quot;white-space: normal;&quot;&gt;        &lt;/span&gt;&lt;font style=&quot;white-space: normal;&quot; face=&quot;JetBrains Mono, monospace&quot; color=&quot;#bcbec4&quot;&gt;string &lt;/font&gt;&lt;span style=&quot;white-space: normal; color: rgb(199, 125, 187);&quot;&gt;nombre&lt;/span&gt;&lt;font style=&quot;white-space: normal;&quot; face=&quot;JetBrains Mono, monospace&quot; color=&quot;#bcbec4&quot;&gt;;&lt;/font&gt;&lt;/div&gt;&lt;/span&gt;&lt;font face=&quot;JetBrains Mono, monospace&quot; color=&quot;#bcbec4&quot;&gt;&lt;div style=&quot;text-align: left;&quot;&gt;&lt;font style=&quot;white-space: normal;&quot; face=&quot;JetBrains Mono, monospace&quot; color=&quot;#bcbec4&quot;&gt;        &lt;/font&gt;&lt;span style=&quot;white-space: normal; color: rgb(207, 142, 109);&quot;&gt;int &lt;/span&gt;&lt;span style=&quot;white-space: normal; color: rgb(199, 125, 187);&quot;&gt;hp&lt;/span&gt;&lt;font style=&quot;white-space: normal;&quot; face=&quot;JetBrains Mono, monospace&quot; color=&quot;#bcbec4&quot;&gt;;&lt;/font&gt;&lt;/div&gt;&lt;/font&gt;&lt;font face=&quot;JetBrains Mono, monospace&quot; color=&quot;#bcbec4&quot;&gt;&lt;div style=&quot;text-align: left;&quot;&gt;&lt;font style=&quot;white-space: normal;&quot; face=&quot;JetBrains Mono, monospace&quot; color=&quot;#bcbec4&quot;&gt;        &lt;/font&gt;&lt;span style=&quot;white-space: normal; color: rgb(207, 142, 109);&quot;&gt;int &lt;/span&gt;&lt;span style=&quot;white-space: normal; color: rgb(199, 125, 187);&quot;&gt;atk&lt;/span&gt;&lt;font style=&quot;white-space: normal;&quot; face=&quot;JetBrains Mono, monospace&quot; color=&quot;#bcbec4&quot;&gt;;&lt;/font&gt;&lt;/div&gt;&lt;/font&gt;&lt;font face=&quot;JetBrains Mono, monospace&quot; color=&quot;#bcbec4&quot;&gt;&lt;div style=&quot;text-align: left;&quot;&gt;&lt;font style=&quot;white-space: normal;&quot; face=&quot;JetBrains Mono, monospace&quot; color=&quot;#bcbec4&quot;&gt;        &lt;/font&gt;&lt;span style=&quot;white-space: normal; color: rgb(207, 142, 109);&quot;&gt;int &lt;/span&gt;&lt;span style=&quot;white-space: normal; color: rgb(199, 125, 187);&quot;&gt;def&lt;/span&gt;&lt;font style=&quot;white-space: normal;&quot; face=&quot;JetBrains Mono, monospace&quot; color=&quot;#bcbec4&quot;&gt;;&lt;/font&gt;&lt;/div&gt;&lt;/font&gt;&lt;font face=&quot;JetBrains Mono, monospace&quot; color=&quot;#bcbec4&quot;&gt;&lt;div style=&quot;text-align: left;&quot;&gt;&lt;font style=&quot;white-space: normal;&quot; face=&quot;JetBrains Mono, monospace&quot; color=&quot;#bcbec4&quot;&gt;        &lt;/font&gt;&lt;span style=&quot;white-space: normal; color: rgb(207, 142, 109);&quot;&gt;int &lt;/span&gt;&lt;span style=&quot;white-space: normal; color: rgb(199, 125, 187);&quot;&gt;spd&lt;/span&gt;&lt;font style=&quot;white-space: normal;&quot; face=&quot;JetBrains Mono, monospace&quot; color=&quot;#bcbec4&quot;&gt;;&lt;/font&gt;&lt;/div&gt;&lt;/font&gt;&lt;font face=&quot;JetBrains Mono, monospace&quot; color=&quot;#bcbec4&quot;&gt;&lt;div style=&quot;text-align: left;&quot;&gt;&lt;font style=&quot;white-space: normal;&quot; face=&quot;JetBrains Mono, monospace&quot; color=&quot;#bcbec4&quot;&gt;        &lt;/font&gt;&lt;span style=&quot;white-space: normal; color: rgb(207, 142, 109);&quot;&gt;int &lt;/span&gt;&lt;span style=&quot;white-space: normal; color: rgb(199, 125, 187);&quot;&gt;lck&lt;/span&gt;&lt;font style=&quot;white-space: normal;&quot; face=&quot;JetBrains Mono, monospace&quot; color=&quot;#bcbec4&quot;&gt;;&lt;/font&gt;&lt;/div&gt;&lt;/font&gt;&lt;font face=&quot;JetBrains Mono, monospace&quot; color=&quot;#bcbec4&quot;&gt;&lt;div style=&quot;text-align: left;&quot;&gt;&lt;font style=&quot;white-space: normal;&quot; face=&quot;JetBrains Mono, monospace&quot; color=&quot;#bcbec4&quot;&gt;    &lt;/font&gt;&lt;span style=&quot;white-space: normal; color: rgb(207, 142, 109);&quot;&gt;public&lt;/span&gt;&lt;font style=&quot;white-space: normal;&quot; face=&quot;JetBrains Mono, monospace&quot; color=&quot;#bcbec4&quot;&gt;:&lt;/font&gt;&lt;/div&gt;&lt;/font&gt;&lt;font face=&quot;JetBrains Mono, monospace&quot; color=&quot;#bcbec4&quot;&gt;&lt;div style=&quot;text-align: left;&quot;&gt;&lt;font style=&quot;white-space: normal;&quot; face=&quot;JetBrains Mono, monospace&quot; color=&quot;#bcbec4&quot;&gt;        &lt;/font&gt;&lt;span style=&quot;white-space: normal; color: rgb(87, 170, 247);&quot;&gt;personajes&lt;/span&gt;&lt;font style=&quot;white-space: normal;&quot; face=&quot;JetBrains Mono, monospace&quot; color=&quot;#bcbec4&quot;&gt;(&lt;/font&gt;&lt;span style=&quot;white-space: normal; color: rgb(207, 142, 109);&quot;&gt;const &lt;/span&gt;&lt;font style=&quot;white-space: normal;&quot; face=&quot;JetBrains Mono, monospace&quot; color=&quot;#bcbec4&quot;&gt;string&amp;amp; nombre, &lt;/font&gt;&lt;span style=&quot;white-space: normal; color: rgb(207, 142, 109);&quot;&gt;int &lt;/span&gt;&lt;font style=&quot;white-space: normal;&quot; face=&quot;JetBrains Mono, monospace&quot; color=&quot;#bcbec4&quot;&gt;hp, &lt;/font&gt;&lt;span style=&quot;white-space: normal; color: rgb(207, 142, 109);&quot;&gt;int &lt;/span&gt;&lt;font style=&quot;white-space: normal;&quot; face=&quot;JetBrains Mono, monospace&quot; color=&quot;#bcbec4&quot;&gt;atk, &lt;/font&gt;&lt;span style=&quot;white-space: normal; color: rgb(207, 142, 109);&quot;&gt;int &lt;/span&gt;&lt;font style=&quot;white-space: normal;&quot; face=&quot;JetBrains Mono, monospace&quot; color=&quot;#bcbec4&quot;&gt;def,&lt;/font&gt;&lt;span style=&quot;white-space: normal; color: rgb(207, 142, 109);&quot;&gt;int &lt;/span&gt;&lt;font style=&quot;white-space: normal;&quot; face=&quot;JetBrains Mono, monospace&quot; color=&quot;#bcbec4&quot;&gt;spd, &lt;/font&gt;&lt;span style=&quot;white-space: normal; color: rgb(207, 142, 109);&quot;&gt;int &lt;/span&gt;&lt;font style=&quot;white-space: normal;&quot; face=&quot;JetBrains Mono, monospace&quot; color=&quot;#bcbec4&quot;&gt;lck);&lt;/font&gt;&lt;/div&gt;&lt;/font&gt;&lt;font face=&quot;JetBrains Mono, monospace&quot; color=&quot;#bcbec4&quot;&gt;&lt;div style=&quot;text-align: left;&quot;&gt;&lt;font style=&quot;white-space: normal;&quot; face=&quot;JetBrains Mono, monospace&quot; color=&quot;#bcbec4&quot;&gt;        &lt;/font&gt;&lt;span style=&quot;white-space: normal; color: rgb(207, 142, 109);&quot;&gt;virtual &lt;/span&gt;&lt;span style=&quot;white-space: normal; color: rgb(87, 170, 247);&quot;&gt;~personajes&lt;/span&gt;&lt;font style=&quot;white-space: normal;&quot; face=&quot;JetBrains Mono, monospace&quot; color=&quot;#bcbec4&quot;&gt;() = &lt;/font&gt;&lt;span style=&quot;white-space: normal; color: rgb(207, 142, 109);&quot;&gt;default&lt;/span&gt;&lt;font style=&quot;white-space: normal;&quot; face=&quot;JetBrains Mono, monospace&quot; color=&quot;#bcbec4&quot;&gt;;&lt;/font&gt;&lt;/div&gt;&lt;/font&gt;&lt;font face=&quot;JetBrains Mono, monospace&quot; color=&quot;#bcbec4&quot;&gt;&lt;div style=&quot;text-align: left;&quot;&gt;&lt;br&gt;&lt;/div&gt;&lt;div style=&quot;text-align: left;&quot;&gt;&lt;font style=&quot;white-space: normal;&quot; face=&quot;JetBrains Mono, monospace&quot; color=&quot;#bcbec4&quot;&gt;        &lt;/font&gt;&lt;span style=&quot;white-space: normal; color: rgb(207, 142, 109);&quot;&gt;void &lt;/span&gt;&lt;span style=&quot;white-space: normal; color: rgb(87, 170, 247);&quot;&gt;setNombre&lt;/span&gt;&lt;font style=&quot;white-space: normal;&quot; face=&quot;JetBrains Mono, monospace&quot; color=&quot;#bcbec4&quot;&gt;();&lt;/font&gt;&lt;/div&gt;&lt;/font&gt;&lt;font face=&quot;JetBrains Mono, monospace&quot; color=&quot;#bcbec4&quot;&gt;&lt;div style=&quot;text-align: left;&quot;&gt;&lt;font style=&quot;white-space: normal;&quot; face=&quot;JetBrains Mono, monospace&quot; color=&quot;#bcbec4&quot;&gt;&amp;nbsp; &amp;nbsp; &amp;nbsp; &amp;nbsp; string &lt;/font&gt;&lt;span style=&quot;white-space: normal; color: rgb(87, 170, 247);&quot;&gt;getNombre&lt;/span&gt;&lt;font style=&quot;white-space: normal;&quot; face=&quot;JetBrains Mono, monospace&quot; color=&quot;#bcbec4&quot;&gt;() &lt;/font&gt;&lt;span style=&quot;white-space: normal; color: rgb(207, 142, 109);&quot;&gt;const&lt;/span&gt;&lt;font style=&quot;white-space: normal;&quot; face=&quot;JetBrains Mono, monospace&quot; color=&quot;#bcbec4&quot;&gt;;&lt;/font&gt;&lt;/div&gt;&lt;/font&gt;&lt;font face=&quot;JetBrains Mono, monospace&quot; color=&quot;#bcbec4&quot;&gt;&lt;div style=&quot;text-align: left;&quot;&gt;&lt;font style=&quot;white-space: normal;&quot; face=&quot;JetBrains Mono, monospace&quot; color=&quot;#bcbec4&quot;&gt;        &lt;/font&gt;&lt;span style=&quot;white-space: normal; color: rgb(207, 142, 109);&quot;&gt;int &lt;/span&gt;&lt;span style=&quot;white-space: normal; color: rgb(87, 170, 247);&quot;&gt;getHP&lt;/span&gt;&lt;font style=&quot;white-space: normal;&quot; face=&quot;JetBrains Mono, monospace&quot; color=&quot;#bcbec4&quot;&gt;() &lt;/font&gt;&lt;span style=&quot;white-space: normal; color: rgb(207, 142, 109);&quot;&gt;const&lt;/span&gt;&lt;font style=&quot;white-space: normal;&quot; face=&quot;JetBrains Mono, monospace&quot; color=&quot;#bcbec4&quot;&gt;;&lt;/font&gt;&lt;/div&gt;&lt;/font&gt;&lt;font face=&quot;JetBrains Mono, monospace&quot; color=&quot;#bcbec4&quot;&gt;&lt;div style=&quot;text-align: left;&quot;&gt;&lt;font style=&quot;white-space: normal;&quot; face=&quot;JetBrains Mono, monospace&quot; color=&quot;#bcbec4&quot;&gt;        &lt;/font&gt;&lt;span style=&quot;white-space: normal; color: rgb(207, 142, 109);&quot;&gt;int &lt;/span&gt;&lt;span style=&quot;white-space: normal; color: rgb(87, 170, 247);&quot;&gt;getAtk&lt;/span&gt;&lt;font style=&quot;white-space: normal;&quot; face=&quot;JetBrains Mono, monospace&quot; color=&quot;#bcbec4&quot;&gt;() &lt;/font&gt;&lt;span style=&quot;white-space: normal; color: rgb(207, 142, 109);&quot;&gt;const&lt;/span&gt;&lt;font style=&quot;white-space: normal;&quot; face=&quot;JetBrains Mono, monospace&quot; color=&quot;#bcbec4&quot;&gt;;&lt;/font&gt;&lt;/div&gt;&lt;/font&gt;&lt;font face=&quot;JetBrains Mono, monospace&quot; color=&quot;#bcbec4&quot;&gt;&lt;div style=&quot;text-align: left;&quot;&gt;&lt;font style=&quot;white-space: normal;&quot; face=&quot;JetBrains Mono, monospace&quot; color=&quot;#bcbec4&quot;&gt;        &lt;/font&gt;&lt;span style=&quot;white-space: normal; color: rgb(207, 142, 109);&quot;&gt;int &lt;/span&gt;&lt;span style=&quot;white-space: normal; color: rgb(87, 170, 247);&quot;&gt;getDef&lt;/span&gt;&lt;font style=&quot;white-space: normal;&quot; face=&quot;JetBrains Mono, monospace&quot; color=&quot;#bcbec4&quot;&gt;() &lt;/font&gt;&lt;span style=&quot;white-space: normal; color: rgb(207, 142, 109);&quot;&gt;const&lt;/span&gt;&lt;font style=&quot;white-space: normal;&quot; face=&quot;JetBrains Mono, monospace&quot; color=&quot;#bcbec4&quot;&gt;;&lt;/font&gt;&lt;/div&gt;&lt;/font&gt;&lt;font face=&quot;JetBrains Mono, monospace&quot; color=&quot;#bcbec4&quot;&gt;&lt;div style=&quot;text-align: left;&quot;&gt;&lt;font style=&quot;white-space: normal;&quot; face=&quot;JetBrains Mono, monospace&quot; color=&quot;#bcbec4&quot;&gt;        &lt;/font&gt;&lt;span style=&quot;white-space: normal; color: rgb(207, 142, 109);&quot;&gt;int &lt;/span&gt;&lt;span style=&quot;white-space: normal; color: rgb(87, 170, 247);&quot;&gt;getSpd&lt;/span&gt;&lt;font style=&quot;white-space: normal;&quot; face=&quot;JetBrains Mono, monospace&quot; color=&quot;#bcbec4&quot;&gt;() &lt;/font&gt;&lt;span style=&quot;white-space: normal; color: rgb(207, 142, 109);&quot;&gt;const&lt;/span&gt;&lt;font style=&quot;white-space: normal;&quot; face=&quot;JetBrains Mono, monospace&quot; color=&quot;#bcbec4&quot;&gt;;&lt;/font&gt;&lt;/div&gt;&lt;/font&gt;&lt;font face=&quot;JetBrains Mono, monospace&quot; color=&quot;#bcbec4&quot;&gt;&lt;div style=&quot;text-align: left;&quot;&gt;&lt;font style=&quot;white-space: normal;&quot; face=&quot;JetBrains Mono, monospace&quot; color=&quot;#bcbec4&quot;&gt;        &lt;/font&gt;&lt;span style=&quot;white-space: normal; color: rgb(207, 142, 109);&quot;&gt;int &lt;/span&gt;&lt;span style=&quot;white-space: normal; color: rgb(87, 170, 247);&quot;&gt;getLck&lt;/span&gt;&lt;font style=&quot;white-space: normal;&quot; face=&quot;JetBrains Mono, monospace&quot; color=&quot;#bcbec4&quot;&gt;() &lt;/font&gt;&lt;span style=&quot;white-space: normal; color: rgb(207, 142, 109);&quot;&gt;const&lt;/span&gt;&lt;font style=&quot;white-space: normal;&quot; face=&quot;JetBrains Mono, monospace&quot; color=&quot;#bcbec4&quot;&gt;;&lt;/font&gt;&lt;/div&gt;&lt;/font&gt;&lt;font face=&quot;JetBrains Mono, monospace&quot; color=&quot;#bcbec4&quot;&gt;&lt;div style=&quot;text-align: left;&quot;&gt;&lt;br&gt;&lt;/div&gt;&lt;div style=&quot;text-align: left;&quot;&gt;&lt;br&gt;&lt;/div&gt;&lt;div style=&quot;text-align: left;&quot;&gt;&lt;font style=&quot;white-space: normal;&quot; face=&quot;JetBrains Mono, monospace&quot; color=&quot;#bcbec4&quot;&gt;        &lt;/font&gt;&lt;span style=&quot;white-space: normal; color: rgb(207, 142, 109);&quot;&gt;virtual void &lt;/span&gt;&lt;span style=&quot;white-space: normal; color: rgb(87, 170, 247);&quot;&gt;recibirDaÃ±o&lt;/span&gt;&lt;font style=&quot;white-space: normal;&quot; face=&quot;JetBrains Mono, monospace&quot; color=&quot;#bcbec4&quot;&gt;(&lt;/font&gt;&lt;span style=&quot;white-space: normal; color: rgb(207, 142, 109);&quot;&gt;int &lt;/span&gt;&lt;font style=&quot;white-space: normal;&quot; face=&quot;JetBrains Mono, monospace&quot; color=&quot;#bcbec4&quot;&gt;cantidad);&lt;/font&gt;&lt;/div&gt;&lt;/font&gt;&lt;font face=&quot;JetBrains Mono, monospace&quot; color=&quot;#bcbec4&quot;&gt;&lt;div style=&quot;text-align: left;&quot;&gt;&lt;font style=&quot;white-space: normal;&quot; face=&quot;JetBrains Mono, monospace&quot; color=&quot;#bcbec4&quot;&gt;        &lt;/font&gt;&lt;span style=&quot;white-space: normal; color: rgb(207, 142, 109);&quot;&gt;void &lt;/span&gt;&lt;span style=&quot;white-space: normal; color: rgb(87, 170, 247);&quot;&gt;curarse&lt;/span&gt;&lt;font style=&quot;white-space: normal;&quot; face=&quot;JetBrains Mono, monospace&quot; color=&quot;#bcbec4&quot;&gt;(&lt;/font&gt;&lt;span style=&quot;white-space: normal; color: rgb(207, 142, 109);&quot;&gt;int &lt;/span&gt;&lt;font style=&quot;white-space: normal;&quot; face=&quot;JetBrains Mono, monospace&quot; color=&quot;#bcbec4&quot;&gt;cantidad);&lt;/font&gt;&lt;/div&gt;&lt;/font&gt;&lt;font face=&quot;JetBrains Mono, monospace&quot; color=&quot;#bcbec4&quot;&gt;&lt;div style=&quot;text-align: left;&quot;&gt;&lt;font style=&quot;white-space: normal;&quot; face=&quot;JetBrains Mono, monospace&quot; color=&quot;#bcbec4&quot;&gt;        &lt;/font&gt;&lt;span style=&quot;white-space: normal; color: rgb(207, 142, 109);&quot;&gt;void &lt;/span&gt;&lt;span style=&quot;white-space: normal; color: rgb(87, 170, 247);&quot;&gt;resetHP&lt;/span&gt;&lt;font style=&quot;white-space: normal;&quot; face=&quot;JetBrains Mono, monospace&quot; color=&quot;#bcbec4&quot;&gt;();&lt;/font&gt;&lt;/div&gt;&lt;/font&gt;&lt;font face=&quot;JetBrains Mono, monospace&quot; color=&quot;#bcbec4&quot;&gt;&lt;div style=&quot;text-align: left;&quot;&gt;&lt;font style=&quot;white-space: normal;&quot; face=&quot;JetBrains Mono, monospace&quot; color=&quot;#bcbec4&quot;&gt;        &lt;/font&gt;&lt;span style=&quot;white-space: normal; color: rgb(207, 142, 109);&quot;&gt;void &lt;/span&gt;&lt;span style=&quot;white-space: normal; color: rgb(87, 170, 247);&quot;&gt;mostrarStat&lt;/span&gt;&lt;font style=&quot;white-space: normal;&quot; face=&quot;JetBrains Mono, monospace&quot; color=&quot;#bcbec4&quot;&gt;() &lt;/font&gt;&lt;span style=&quot;white-space: normal; color: rgb(207, 142, 109);&quot;&gt;const&lt;/span&gt;&lt;font style=&quot;white-space: normal;&quot; face=&quot;JetBrains Mono, monospace&quot; color=&quot;#bcbec4&quot;&gt;;&lt;/font&gt;&lt;/div&gt;&lt;/font&gt;&lt;font face=&quot;JetBrains Mono, monospace&quot; color=&quot;#bcbec4&quot;&gt;&lt;div style=&quot;text-align: left;&quot;&gt;&lt;span style=&quot;white-space: normal;&quot;&gt;};&lt;/span&gt;&lt;/div&gt;&lt;div style=&quot;text-align: left;&quot;&gt;&lt;br&gt;&lt;/div&gt;&lt;/font&gt;&lt;span style=&quot;color: rgb(179, 174, 96); font-family: &amp;quot;JetBrains Mono&amp;quot;, monospace;&quot;&gt;&lt;div style=&quot;text-align: left;&quot;&gt;&lt;span style=&quot;white-space: normal;&quot;&gt;#endif &lt;/span&gt;&lt;span style=&quot;white-space: normal; color: rgb(122, 126, 133);&quot;&gt;//PERSONAJES_H&lt;/span&gt;&lt;/div&gt;&lt;/span&gt;&lt;/pre&gt;&lt;/div&gt;" style="rounded=0;whiteSpace=wrap;html=1;" vertex="1" parent="1">
          <mxGeometry x="-320" y="-80" width="600" height="580" as="geometry" />
        </mxCell>
        <mxCell id="eOPFmJKDIx5pttfgIMO1-14" style="edgeStyle=orthogonalEdgeStyle;rounded=0;orthogonalLoop=1;jettySize=auto;html=1;exitX=0;exitY=0.25;exitDx=0;exitDy=0;entryX=0.5;entryY=0;entryDx=0;entryDy=0;" edge="1" parent="1" source="eOPFmJKDIx5pttfgIMO1-2" target="eOPFmJKDIx5pttfgIMO1-13">
          <mxGeometry relative="1" as="geometry" />
        </mxCell>
        <mxCell id="eOPFmJKDIx5pttfgIMO1-23" style="edgeStyle=orthogonalEdgeStyle;rounded=0;orthogonalLoop=1;jettySize=auto;html=1;exitX=0.75;exitY=1;exitDx=0;exitDy=0;entryX=0.5;entryY=0;entryDx=0;entryDy=0;" edge="1" parent="1" source="eOPFmJKDIx5pttfgIMO1-2" target="eOPFmJKDIx5pttfgIMO1-18">
          <mxGeometry relative="1" as="geometry" />
        </mxCell>
        <mxCell id="eOPFmJKDIx5pttfgIMO1-26" style="edgeStyle=orthogonalEdgeStyle;rounded=0;orthogonalLoop=1;jettySize=auto;html=1;exitX=0.25;exitY=1;exitDx=0;exitDy=0;entryX=0.5;entryY=0;entryDx=0;entryDy=0;" edge="1" parent="1" source="eOPFmJKDIx5pttfgIMO1-2" target="eOPFmJKDIx5pttfgIMO1-25">
          <mxGeometry relative="1" as="geometry" />
        </mxCell>
        <mxCell id="eOPFmJKDIx5pttfgIMO1-32" style="edgeStyle=orthogonalEdgeStyle;rounded=0;orthogonalLoop=1;jettySize=auto;html=1;exitX=0.25;exitY=0;exitDx=0;exitDy=0;entryX=0.75;entryY=0;entryDx=0;entryDy=0;" edge="1" parent="1" source="eOPFmJKDIx5pttfgIMO1-2" target="eOPFmJKDIx5pttfgIMO1-6">
          <mxGeometry relative="1" as="geometry">
            <Array as="points">
              <mxPoint x="-847" y="-550" />
              <mxPoint x="1585" y="-550" />
            </Array>
          </mxGeometry>
        </mxCell>
        <mxCell id="eOPFmJKDIx5pttfgIMO1-2" value="&lt;div style=&quot;background-color: rgb(30, 31, 34);&quot;&gt;&lt;pre style=&quot;&quot;&gt;&lt;div style=&quot;color: rgb(188, 190, 196); font-family: &amp;quot;JetBrains Mono&amp;quot;, monospace; text-align: left;&quot;&gt;&lt;span style=&quot;white-space: normal; color: rgb(179, 174, 96);&quot;&gt;#ifndef &lt;/span&gt;&lt;span style=&quot;white-space: normal;&quot;&gt;HEROES_H&lt;/span&gt;&lt;/div&gt;&lt;span style=&quot;color: rgb(179, 174, 96); font-family: &amp;quot;JetBrains Mono&amp;quot;, monospace;&quot;&gt;&lt;div style=&quot;text-align: left;&quot;&gt;&lt;span style=&quot;white-space: normal;&quot;&gt;#define &lt;/span&gt;&lt;span style=&quot;color: rgb(188, 190, 196); white-space: normal;&quot;&gt;HEROES_H&lt;/span&gt;&lt;/div&gt;&lt;/span&gt;&lt;span style=&quot;color: rgb(179, 174, 96); font-family: &amp;quot;JetBrains Mono&amp;quot;, monospace;&quot;&gt;&lt;div style=&quot;text-align: left;&quot;&gt;&lt;span style=&quot;white-space: normal;&quot;&gt;#include &lt;/span&gt;&lt;span style=&quot;white-space: normal; color: rgb(106, 171, 115);&quot;&gt;&quot;personajes.h&quot;&lt;/span&gt;&lt;/div&gt;&lt;/span&gt;&lt;div style=&quot;text-align: left;&quot;&gt;&lt;font face=&quot;JetBrains Mono, monospace&quot; color=&quot;#6aab73&quot;&gt;&lt;br&gt;&lt;/font&gt;&lt;/div&gt;&lt;span style=&quot;color: rgb(207, 142, 109); font-family: &amp;quot;JetBrains Mono&amp;quot;, monospace;&quot;&gt;&lt;div style=&quot;text-align: left;&quot;&gt;&lt;span style=&quot;white-space: normal;&quot;&gt;class &lt;/span&gt;&lt;font style=&quot;white-space: normal;&quot; face=&quot;JetBrains Mono, monospace&quot; color=&quot;#bcbec4&quot;&gt;items;&lt;/font&gt;&lt;/div&gt;&lt;/span&gt;&lt;font face=&quot;JetBrains Mono, monospace&quot; color=&quot;#bcbec4&quot;&gt;&lt;div style=&quot;text-align: left;&quot;&gt;&lt;br&gt;&lt;/div&gt;&lt;/font&gt;&lt;span style=&quot;color: rgb(207, 142, 109); font-family: &amp;quot;JetBrains Mono&amp;quot;, monospace;&quot;&gt;&lt;div style=&quot;text-align: left;&quot;&gt;&lt;span style=&quot;white-space: normal;&quot;&gt;class &lt;/span&gt;&lt;font style=&quot;white-space: normal;&quot; face=&quot;JetBrains Mono, monospace&quot; color=&quot;#bcbec4&quot;&gt;heroes : &lt;/font&gt;&lt;span style=&quot;white-space: normal;&quot;&gt;public &lt;/span&gt;&lt;font style=&quot;white-space: normal;&quot; face=&quot;JetBrains Mono, monospace&quot; color=&quot;#bcbec4&quot;&gt;personajes {&lt;/font&gt;&lt;/div&gt;&lt;/span&gt;&lt;span style=&quot;color: rgb(111, 115, 122); font-family: &amp;quot;JetBrains Mono&amp;quot;, monospace;&quot;&gt;&lt;div style=&quot;text-align: left;&quot;&gt;&lt;span style=&quot;white-space: normal;&quot;&gt;private:&lt;/span&gt;&lt;/div&gt;&lt;/span&gt;&lt;span style=&quot;color: rgb(111, 115, 122); font-family: &amp;quot;JetBrains Mono&amp;quot;, monospace;&quot;&gt;&lt;div style=&quot;text-align: left;&quot;&gt;&lt;span style=&quot;white-space: normal;&quot;&gt;    &lt;/span&gt;&lt;span style=&quot;white-space: normal; color: rgb(207, 142, 109);&quot;&gt;int &lt;/span&gt;&lt;span style=&quot;white-space: normal; color: rgb(199, 125, 187);&quot;&gt;dinero&lt;/span&gt;&lt;font style=&quot;white-space: normal;&quot; face=&quot;JetBrains Mono, monospace&quot; color=&quot;#bcbec4&quot;&gt;;&lt;/font&gt;&lt;/div&gt;&lt;/span&gt;&lt;font face=&quot;JetBrains Mono, monospace&quot; color=&quot;#bcbec4&quot;&gt;&lt;div style=&quot;text-align: left;&quot;&gt;&lt;font style=&quot;white-space: normal;&quot; face=&quot;JetBrains Mono, monospace&quot; color=&quot;#bcbec4&quot;&gt;&amp;nbsp; &amp;nbsp; vector&amp;lt;items*&amp;gt; &lt;/font&gt;&lt;span style=&quot;white-space: normal; color: rgb(199, 125, 187);&quot;&gt;inventario&lt;/span&gt;&lt;font style=&quot;white-space: normal;&quot; face=&quot;JetBrains Mono, monospace&quot; color=&quot;#bcbec4&quot;&gt;;&lt;/font&gt;&lt;/div&gt;&lt;/font&gt;&lt;font face=&quot;JetBrains Mono, monospace&quot; color=&quot;#bcbec4&quot;&gt;&lt;div style=&quot;text-align: left;&quot;&gt;&lt;font style=&quot;white-space: normal;&quot; face=&quot;JetBrains Mono, monospace&quot; color=&quot;#bcbec4&quot;&gt;&amp;nbsp; &amp;nbsp; items* &lt;/font&gt;&lt;span style=&quot;white-space: normal; color: rgb(199, 125, 187);&quot;&gt;arma &lt;/span&gt;&lt;font style=&quot;white-space: normal;&quot; face=&quot;JetBrains Mono, monospace&quot; color=&quot;#bcbec4&quot;&gt;= &lt;/font&gt;&lt;span style=&quot;white-space: normal; color: rgb(207, 142, 109);&quot;&gt;nullptr&lt;/span&gt;&lt;font style=&quot;white-space: normal;&quot; face=&quot;JetBrains Mono, monospace&quot; color=&quot;#bcbec4&quot;&gt;;&lt;/font&gt;&lt;/div&gt;&lt;/font&gt;&lt;font face=&quot;JetBrains Mono, monospace&quot; color=&quot;#bcbec4&quot;&gt;&lt;div style=&quot;text-align: left;&quot;&gt;&lt;font style=&quot;white-space: normal;&quot; face=&quot;JetBrains Mono, monospace&quot; color=&quot;#bcbec4&quot;&gt;&amp;nbsp; &amp;nbsp; items* &lt;/font&gt;&lt;span style=&quot;white-space: normal; color: rgb(199, 125, 187);&quot;&gt;armadura &lt;/span&gt;&lt;font style=&quot;white-space: normal;&quot; face=&quot;JetBrains Mono, monospace&quot; color=&quot;#bcbec4&quot;&gt;= &lt;/font&gt;&lt;span style=&quot;white-space: normal; color: rgb(207, 142, 109);&quot;&gt;nullptr&lt;/span&gt;&lt;font style=&quot;white-space: normal;&quot; face=&quot;JetBrains Mono, monospace&quot; color=&quot;#bcbec4&quot;&gt;;&lt;/font&gt;&lt;/div&gt;&lt;/font&gt;&lt;font face=&quot;JetBrains Mono, monospace&quot; color=&quot;#bcbec4&quot;&gt;&lt;div style=&quot;text-align: left;&quot;&gt;&lt;font style=&quot;white-space: normal;&quot; face=&quot;JetBrains Mono, monospace&quot; color=&quot;#bcbec4&quot;&gt;&amp;nbsp; &amp;nbsp; items* &lt;/font&gt;&lt;span style=&quot;white-space: normal; color: rgb(199, 125, 187);&quot;&gt;pociones &lt;/span&gt;&lt;font style=&quot;white-space: normal;&quot; face=&quot;JetBrains Mono, monospace&quot; color=&quot;#bcbec4&quot;&gt;= &lt;/font&gt;&lt;span style=&quot;white-space: normal; color: rgb(207, 142, 109);&quot;&gt;nullptr&lt;/span&gt;&lt;font style=&quot;white-space: normal;&quot; face=&quot;JetBrains Mono, monospace&quot; color=&quot;#bcbec4&quot;&gt;;&lt;/font&gt;&lt;/div&gt;&lt;/font&gt;&lt;font face=&quot;JetBrains Mono, monospace&quot; color=&quot;#bcbec4&quot;&gt;&lt;div style=&quot;text-align: left;&quot;&gt;&lt;br&gt;&lt;/div&gt;&lt;div style=&quot;text-align: left;&quot;&gt;&lt;font style=&quot;white-space: normal;&quot; face=&quot;JetBrains Mono, monospace&quot; color=&quot;#bcbec4&quot;&gt;    &lt;/font&gt;&lt;span style=&quot;white-space: normal; color: rgb(207, 142, 109);&quot;&gt;int &lt;/span&gt;&lt;span style=&quot;white-space: normal; color: rgb(199, 125, 187);&quot;&gt;buffATK &lt;/span&gt;&lt;font style=&quot;white-space: normal;&quot; face=&quot;JetBrains Mono, monospace&quot; color=&quot;#bcbec4&quot;&gt;= &lt;/font&gt;&lt;span style=&quot;white-space: normal; color: rgb(42, 172, 184);&quot;&gt;0&lt;/span&gt;&lt;font style=&quot;white-space: normal;&quot; face=&quot;JetBrains Mono, monospace&quot; color=&quot;#bcbec4&quot;&gt;;&lt;/font&gt;&lt;/div&gt;&lt;/font&gt;&lt;font face=&quot;JetBrains Mono, monospace&quot; color=&quot;#bcbec4&quot;&gt;&lt;div style=&quot;text-align: left;&quot;&gt;&lt;font style=&quot;white-space: normal;&quot; face=&quot;JetBrains Mono, monospace&quot; color=&quot;#bcbec4&quot;&gt;    &lt;/font&gt;&lt;span style=&quot;white-space: normal; color: rgb(207, 142, 109);&quot;&gt;int &lt;/span&gt;&lt;span style=&quot;white-space: normal; color: rgb(199, 125, 187);&quot;&gt;buffATKduracion &lt;/span&gt;&lt;font style=&quot;white-space: normal;&quot; face=&quot;JetBrains Mono, monospace&quot; color=&quot;#bcbec4&quot;&gt;= &lt;/font&gt;&lt;span style=&quot;white-space: normal; color: rgb(42, 172, 184);&quot;&gt;0&lt;/span&gt;&lt;font style=&quot;white-space: normal;&quot; face=&quot;JetBrains Mono, monospace&quot; color=&quot;#bcbec4&quot;&gt;;&lt;/font&gt;&lt;/div&gt;&lt;/font&gt;&lt;font face=&quot;JetBrains Mono, monospace&quot; color=&quot;#bcbec4&quot;&gt;&lt;div style=&quot;text-align: left;&quot;&gt;&lt;br&gt;&lt;/div&gt;&lt;/font&gt;&lt;span style=&quot;color: rgb(207, 142, 109); font-family: &amp;quot;JetBrains Mono&amp;quot;, monospace;&quot;&gt;&lt;div style=&quot;text-align: left;&quot;&gt;&lt;span style=&quot;white-space: normal;&quot;&gt;public&lt;/span&gt;&lt;font style=&quot;white-space: normal;&quot; face=&quot;JetBrains Mono, monospace&quot; color=&quot;#bcbec4&quot;&gt;:&lt;/font&gt;&lt;/div&gt;&lt;/span&gt;&lt;font face=&quot;JetBrains Mono, monospace&quot; color=&quot;#bcbec4&quot;&gt;&lt;div style=&quot;text-align: left;&quot;&gt;&lt;font style=&quot;white-space: normal;&quot; face=&quot;JetBrains Mono, monospace&quot; color=&quot;#bcbec4&quot;&gt;    &lt;/font&gt;&lt;span style=&quot;white-space: normal; color: rgb(87, 170, 247);&quot;&gt;heroes&lt;/span&gt;&lt;font style=&quot;white-space: normal;&quot; face=&quot;JetBrains Mono, monospace&quot; color=&quot;#bcbec4&quot;&gt;(&lt;/font&gt;&lt;span style=&quot;white-space: normal; color: rgb(207, 142, 109);&quot;&gt;const &lt;/span&gt;&lt;font style=&quot;white-space: normal;&quot; face=&quot;JetBrains Mono, monospace&quot; color=&quot;#bcbec4&quot;&gt;string&amp;amp; nombre,&lt;/font&gt;&lt;span style=&quot;white-space: normal; color: rgb(207, 142, 109);&quot;&gt;int &lt;/span&gt;&lt;font style=&quot;white-space: normal;&quot; face=&quot;JetBrains Mono, monospace&quot; color=&quot;#bcbec4&quot;&gt;hp,&lt;/font&gt;&lt;span style=&quot;white-space: normal; color: rgb(207, 142, 109);&quot;&gt;int &lt;/span&gt;&lt;font style=&quot;white-space: normal;&quot; face=&quot;JetBrains Mono, monospace&quot; color=&quot;#bcbec4&quot;&gt;atk, &lt;/font&gt;&lt;span style=&quot;white-space: normal; color: rgb(207, 142, 109);&quot;&gt;int &lt;/span&gt;&lt;font style=&quot;white-space: normal;&quot; face=&quot;JetBrains Mono, monospace&quot; color=&quot;#bcbec4&quot;&gt;def,&lt;/font&gt;&lt;span style=&quot;white-space: normal; color: rgb(207, 142, 109);&quot;&gt;int &lt;/span&gt;&lt;font style=&quot;white-space: normal;&quot; face=&quot;JetBrains Mono, monospace&quot; color=&quot;#bcbec4&quot;&gt;spd, &lt;/font&gt;&lt;span style=&quot;white-space: normal; color: rgb(207, 142, 109);&quot;&gt;int &lt;/span&gt;&lt;font style=&quot;white-space: normal;&quot; face=&quot;JetBrains Mono, monospace&quot; color=&quot;#bcbec4&quot;&gt;lck,&lt;/font&gt;&lt;span style=&quot;white-space: normal; color: rgb(207, 142, 109);&quot;&gt;int &lt;/span&gt;&lt;font style=&quot;white-space: normal;&quot; face=&quot;JetBrains Mono, monospace&quot; color=&quot;#bcbec4&quot;&gt;dinero);&lt;/font&gt;&lt;/div&gt;&lt;/font&gt;&lt;font face=&quot;JetBrains Mono, monospace&quot; color=&quot;#bcbec4&quot;&gt;&lt;div style=&quot;text-align: left;&quot;&gt;&lt;br&gt;&lt;/div&gt;&lt;div style=&quot;text-align: left;&quot;&gt;&lt;font style=&quot;white-space: normal;&quot; face=&quot;JetBrains Mono, monospace&quot; color=&quot;#bcbec4&quot;&gt;    &lt;/font&gt;&lt;span style=&quot;white-space: normal; color: rgb(207, 142, 109);&quot;&gt;void &lt;/span&gt;&lt;span style=&quot;white-space: normal; color: rgb(87, 170, 247);&quot;&gt;equiparArma&lt;/span&gt;&lt;font style=&quot;white-space: normal;&quot; face=&quot;JetBrains Mono, monospace&quot; color=&quot;#bcbec4&quot;&gt;(items* arma);&lt;/font&gt;&lt;/div&gt;&lt;/font&gt;&lt;font face=&quot;JetBrains Mono, monospace&quot; color=&quot;#bcbec4&quot;&gt;&lt;div style=&quot;text-align: left;&quot;&gt;&lt;font style=&quot;white-space: normal;&quot; face=&quot;JetBrains Mono, monospace&quot; color=&quot;#bcbec4&quot;&gt;    &lt;/font&gt;&lt;span style=&quot;white-space: normal; color: rgb(207, 142, 109);&quot;&gt;void &lt;/span&gt;&lt;span style=&quot;white-space: normal; color: rgb(87, 170, 247);&quot;&gt;equiparArmadura&lt;/span&gt;&lt;font style=&quot;white-space: normal;&quot; face=&quot;JetBrains Mono, monospace&quot; color=&quot;#bcbec4&quot;&gt;(items* armadura);&lt;/font&gt;&lt;/div&gt;&lt;/font&gt;&lt;font face=&quot;JetBrains Mono, monospace&quot; color=&quot;#bcbec4&quot;&gt;&lt;div style=&quot;text-align: left;&quot;&gt;&lt;font style=&quot;white-space: normal;&quot; face=&quot;JetBrains Mono, monospace&quot; color=&quot;#bcbec4&quot;&gt;    &lt;/font&gt;&lt;span style=&quot;white-space: normal; color: rgb(207, 142, 109);&quot;&gt;void &lt;/span&gt;&lt;span style=&quot;white-space: normal; color: rgb(87, 170, 247);&quot;&gt;equiparPociones&lt;/span&gt;&lt;font style=&quot;white-space: normal;&quot; face=&quot;JetBrains Mono, monospace&quot; color=&quot;#bcbec4&quot;&gt;(items* pociones);&lt;/font&gt;&lt;/div&gt;&lt;/font&gt;&lt;font face=&quot;JetBrains Mono, monospace&quot; color=&quot;#bcbec4&quot;&gt;&lt;div style=&quot;text-align: left;&quot;&gt;&lt;br&gt;&lt;/div&gt;&lt;div style=&quot;text-align: left;&quot;&gt;&lt;font style=&quot;white-space: normal;&quot; face=&quot;JetBrains Mono, monospace&quot; color=&quot;#bcbec4&quot;&gt;    &lt;/font&gt;&lt;span style=&quot;white-space: normal; color: rgb(207, 142, 109);&quot;&gt;void &lt;/span&gt;&lt;span style=&quot;white-space: normal; color: rgb(87, 170, 247);&quot;&gt;usarPocion&lt;/span&gt;&lt;font style=&quot;white-space: normal;&quot; face=&quot;JetBrains Mono, monospace&quot; color=&quot;#bcbec4&quot;&gt;();&lt;/font&gt;&lt;/div&gt;&lt;/font&gt;&lt;font face=&quot;JetBrains Mono, monospace&quot; color=&quot;#bcbec4&quot;&gt;&lt;div style=&quot;text-align: left;&quot;&gt;&lt;font style=&quot;white-space: normal;&quot; face=&quot;JetBrains Mono, monospace&quot; color=&quot;#bcbec4&quot;&gt;    &lt;/font&gt;&lt;span style=&quot;white-space: normal; color: rgb(207, 142, 109);&quot;&gt;void &lt;/span&gt;&lt;span style=&quot;white-space: normal; color: rgb(87, 170, 247);&quot;&gt;recibirDaÃ±o&lt;/span&gt;&lt;font style=&quot;white-space: normal;&quot; face=&quot;JetBrains Mono, monospace&quot; color=&quot;#bcbec4&quot;&gt;(&lt;/font&gt;&lt;span style=&quot;white-space: normal; color: rgb(207, 142, 109);&quot;&gt;int &lt;/span&gt;&lt;font style=&quot;white-space: normal;&quot; face=&quot;JetBrains Mono, monospace&quot; color=&quot;#bcbec4&quot;&gt;cantidad) &lt;/font&gt;&lt;span style=&quot;white-space: normal; color: rgb(207, 142, 109);&quot;&gt;override&lt;/span&gt;&lt;font style=&quot;white-space: normal;&quot; face=&quot;JetBrains Mono, monospace&quot; color=&quot;#bcbec4&quot;&gt;;&lt;/font&gt;&lt;/div&gt;&lt;/font&gt;&lt;font face=&quot;JetBrains Mono, monospace&quot; color=&quot;#bcbec4&quot;&gt;&lt;div style=&quot;text-align: left;&quot;&gt;&lt;br&gt;&lt;/div&gt;&lt;div style=&quot;text-align: left;&quot;&gt;&lt;font style=&quot;white-space: normal;&quot; face=&quot;JetBrains Mono, monospace&quot; color=&quot;#bcbec4&quot;&gt;    &lt;/font&gt;&lt;span style=&quot;white-space: normal; color: rgb(207, 142, 109);&quot;&gt;void &lt;/span&gt;&lt;span style=&quot;white-space: normal; color: rgb(87, 170, 247);&quot;&gt;mostrarInventario&lt;/span&gt;&lt;font style=&quot;white-space: normal;&quot; face=&quot;JetBrains Mono, monospace&quot; color=&quot;#bcbec4&quot;&gt;() &lt;/font&gt;&lt;span style=&quot;white-space: normal; color: rgb(207, 142, 109);&quot;&gt;const&lt;/span&gt;&lt;font style=&quot;white-space: normal;&quot; face=&quot;JetBrains Mono, monospace&quot; color=&quot;#bcbec4&quot;&gt;;&lt;/font&gt;&lt;/div&gt;&lt;/font&gt;&lt;font face=&quot;JetBrains Mono, monospace&quot; color=&quot;#bcbec4&quot;&gt;&lt;div style=&quot;text-align: left;&quot;&gt;&lt;br&gt;&lt;/div&gt;&lt;div style=&quot;text-align: left;&quot;&gt;&lt;font style=&quot;white-space: normal;&quot; face=&quot;JetBrains Mono, monospace&quot; color=&quot;#bcbec4&quot;&gt;    &lt;/font&gt;&lt;span style=&quot;white-space: normal; color: rgb(207, 142, 109);&quot;&gt;int &lt;/span&gt;&lt;span style=&quot;white-space: normal; color: rgb(87, 170, 247);&quot;&gt;getDinero&lt;/span&gt;&lt;font style=&quot;white-space: normal;&quot; face=&quot;JetBrains Mono, monospace&quot; color=&quot;#bcbec4&quot;&gt;() &lt;/font&gt;&lt;span style=&quot;white-space: normal; color: rgb(207, 142, 109);&quot;&gt;const&lt;/span&gt;&lt;font style=&quot;white-space: normal;&quot; face=&quot;JetBrains Mono, monospace&quot; color=&quot;#bcbec4&quot;&gt;;&lt;/font&gt;&lt;/div&gt;&lt;/font&gt;&lt;font face=&quot;JetBrains Mono, monospace&quot; color=&quot;#bcbec4&quot;&gt;&lt;div style=&quot;text-align: left;&quot;&gt;&lt;font style=&quot;white-space: normal;&quot; face=&quot;JetBrains Mono, monospace&quot; color=&quot;#bcbec4&quot;&gt;    &lt;/font&gt;&lt;span style=&quot;white-space: normal; color: rgb(207, 142, 109);&quot;&gt;int &lt;/span&gt;&lt;span style=&quot;white-space: normal; color: rgb(87, 170, 247);&quot;&gt;ganarDinero&lt;/span&gt;&lt;font style=&quot;white-space: normal;&quot; face=&quot;JetBrains Mono, monospace&quot; color=&quot;#bcbec4&quot;&gt;(&lt;/font&gt;&lt;span style=&quot;white-space: normal; color: rgb(207, 142, 109);&quot;&gt;int &lt;/span&gt;&lt;font style=&quot;white-space: normal;&quot; face=&quot;JetBrains Mono, monospace&quot; color=&quot;#bcbec4&quot;&gt;cantidad);&lt;/font&gt;&lt;/div&gt;&lt;/font&gt;&lt;font face=&quot;JetBrains Mono, monospace&quot; color=&quot;#bcbec4&quot;&gt;&lt;div style=&quot;text-align: left;&quot;&gt;&lt;br&gt;&lt;/div&gt;&lt;div style=&quot;text-align: left;&quot;&gt;&lt;font style=&quot;white-space: normal;&quot; face=&quot;JetBrains Mono, monospace&quot; color=&quot;#bcbec4&quot;&gt;    &lt;/font&gt;&lt;span style=&quot;white-space: normal; color: rgb(207, 142, 109);&quot;&gt;void &lt;/span&gt;&lt;span style=&quot;white-space: normal; color: rgb(87, 170, 247);&quot;&gt;atacar&lt;/span&gt;&lt;font style=&quot;white-space: normal;&quot; face=&quot;JetBrains Mono, monospace&quot; color=&quot;#bcbec4&quot;&gt;(personajes* enemigo);&lt;/font&gt;&lt;/div&gt;&lt;/font&gt;&lt;font face=&quot;JetBrains Mono, monospace&quot; color=&quot;#bcbec4&quot;&gt;&lt;div style=&quot;text-align: left;&quot;&gt;&lt;font style=&quot;white-space: normal;&quot; face=&quot;JetBrains Mono, monospace&quot; color=&quot;#bcbec4&quot;&gt;    &lt;/font&gt;&lt;span style=&quot;white-space: normal; color: rgb(207, 142, 109);&quot;&gt;bool &lt;/span&gt;&lt;span style=&quot;white-space: normal; color: rgb(87, 170, 247);&quot;&gt;alive&lt;/span&gt;&lt;font style=&quot;white-space: normal;&quot; face=&quot;JetBrains Mono, monospace&quot; color=&quot;#bcbec4&quot;&gt;();&lt;/font&gt;&lt;/div&gt;&lt;/font&gt;&lt;font face=&quot;JetBrains Mono, monospace&quot; color=&quot;#bcbec4&quot;&gt;&lt;div style=&quot;text-align: left;&quot;&gt;&lt;font style=&quot;white-space: normal;&quot; face=&quot;JetBrains Mono, monospace&quot; color=&quot;#bcbec4&quot;&gt;    &lt;/font&gt;&lt;span style=&quot;white-space: normal; color: rgb(207, 142, 109);&quot;&gt;static &lt;/span&gt;&lt;font style=&quot;white-space: normal;&quot; face=&quot;JetBrains Mono, monospace&quot; color=&quot;#bcbec4&quot;&gt;vector&amp;lt;heroes*&amp;gt;&lt;/font&gt;&lt;span style=&quot;white-space: normal; color: rgb(87, 170, 247); font-style: italic;&quot;&gt;opcHeroes&lt;/span&gt;&lt;font style=&quot;white-space: normal;&quot; face=&quot;JetBrains Mono, monospace&quot; color=&quot;#bcbec4&quot;&gt;();&lt;/font&gt;&lt;/div&gt;&lt;/font&gt;&lt;font face=&quot;JetBrains Mono, monospace&quot; color=&quot;#bcbec4&quot;&gt;&lt;div style=&quot;text-align: left;&quot;&gt;&lt;br&gt;&lt;/div&gt;&lt;div style=&quot;text-align: left;&quot;&gt;&lt;font style=&quot;white-space: normal;&quot; face=&quot;JetBrains Mono, monospace&quot; color=&quot;#bcbec4&quot;&gt;    &lt;/font&gt;&lt;span style=&quot;white-space: normal; color: rgb(207, 142, 109);&quot;&gt;void &lt;/span&gt;&lt;span style=&quot;white-space: normal; color: rgb(87, 170, 247);&quot;&gt;aplicarBuffATK&lt;/span&gt;&lt;font style=&quot;white-space: normal;&quot; face=&quot;JetBrains Mono, monospace&quot; color=&quot;#bcbec4&quot;&gt;(&lt;/font&gt;&lt;span style=&quot;white-space: normal; color: rgb(207, 142, 109);&quot;&gt;int &lt;/span&gt;&lt;font style=&quot;white-space: normal;&quot; face=&quot;JetBrains Mono, monospace&quot; color=&quot;#bcbec4&quot;&gt;cantidad, &lt;/font&gt;&lt;span style=&quot;white-space: normal; color: rgb(207, 142, 109);&quot;&gt;int &lt;/span&gt;&lt;font style=&quot;white-space: normal;&quot; face=&quot;JetBrains Mono, monospace&quot; color=&quot;#bcbec4&quot;&gt;duracion);&lt;/font&gt;&lt;/div&gt;&lt;/font&gt;&lt;font face=&quot;JetBrains Mono, monospace&quot; color=&quot;#bcbec4&quot;&gt;&lt;div style=&quot;text-align: left;&quot;&gt;&lt;font style=&quot;white-space: normal;&quot; face=&quot;JetBrains Mono, monospace&quot; color=&quot;#bcbec4&quot;&gt;    &lt;/font&gt;&lt;span style=&quot;white-space: normal; color: rgb(207, 142, 109);&quot;&gt;void &lt;/span&gt;&lt;span style=&quot;white-space: normal; color: rgb(87, 170, 247);&quot;&gt;avanzarTurno&lt;/span&gt;&lt;font style=&quot;white-space: normal;&quot; face=&quot;JetBrains Mono, monospace&quot; color=&quot;#bcbec4&quot;&gt;() &lt;/font&gt;&lt;span style=&quot;white-space: normal; color: rgb(207, 142, 109);&quot;&gt;const &lt;/span&gt;&lt;font style=&quot;white-space: normal;&quot; face=&quot;JetBrains Mono, monospace&quot; color=&quot;#bcbec4&quot;&gt;;&lt;/font&gt;&lt;/div&gt;&lt;/font&gt;&lt;font face=&quot;JetBrains Mono, monospace&quot; color=&quot;#bcbec4&quot;&gt;&lt;div style=&quot;text-align: left;&quot;&gt;&lt;font style=&quot;white-space: normal;&quot; face=&quot;JetBrains Mono, monospace&quot; color=&quot;#bcbec4&quot;&gt;    &lt;/font&gt;&lt;span style=&quot;white-space: normal; color: rgb(207, 142, 109);&quot;&gt;void &lt;/span&gt;&lt;span style=&quot;white-space: normal; color: rgb(87, 170, 247);&quot;&gt;gastarDinero&lt;/span&gt;&lt;font style=&quot;white-space: normal;&quot; face=&quot;JetBrains Mono, monospace&quot; color=&quot;#bcbec4&quot;&gt;(&lt;/font&gt;&lt;span style=&quot;white-space: normal; color: rgb(207, 142, 109);&quot;&gt;int &lt;/span&gt;&lt;font style=&quot;white-space: normal;&quot; face=&quot;JetBrains Mono, monospace&quot; color=&quot;#bcbec4&quot;&gt;cantidad);&lt;/font&gt;&lt;/div&gt;&lt;/font&gt;&lt;font face=&quot;JetBrains Mono, monospace&quot; color=&quot;#bcbec4&quot;&gt;&lt;div style=&quot;text-align: left;&quot;&gt;&lt;font style=&quot;white-space: normal;&quot; face=&quot;JetBrains Mono, monospace&quot; color=&quot;#bcbec4&quot;&gt;    &lt;/font&gt;&lt;span style=&quot;white-space: normal; color: rgb(207, 142, 109);&quot;&gt;void &lt;/span&gt;&lt;span style=&quot;white-space: normal; color: rgb(87, 170, 247);&quot;&gt;agregarAlInventario&lt;/span&gt;&lt;font style=&quot;white-space: normal;&quot; face=&quot;JetBrains Mono, monospace&quot; color=&quot;#bcbec4&quot;&gt;(items* nuevo);&lt;/font&gt;&lt;/div&gt;&lt;/font&gt;&lt;font face=&quot;JetBrains Mono, monospace&quot; color=&quot;#bcbec4&quot;&gt;&lt;div style=&quot;text-align: left;&quot;&gt;&lt;font style=&quot;white-space: normal;&quot; face=&quot;JetBrains Mono, monospace&quot; color=&quot;#bcbec4&quot;&gt;    &lt;/font&gt;&lt;span style=&quot;white-space: normal; color: rgb(207, 142, 109);&quot;&gt;void &lt;/span&gt;&lt;span style=&quot;white-space: normal; color: rgb(87, 170, 247);&quot;&gt;usarItemInventario&lt;/span&gt;&lt;font style=&quot;white-space: normal;&quot; face=&quot;JetBrains Mono, monospace&quot; color=&quot;#bcbec4&quot;&gt;(&lt;/font&gt;&lt;span style=&quot;white-space: normal; color: rgb(207, 142, 109);&quot;&gt;int &lt;/span&gt;&lt;font style=&quot;white-space: normal;&quot; face=&quot;JetBrains Mono, monospace&quot; color=&quot;#bcbec4&quot;&gt;index);  &lt;/font&gt;&lt;span style=&quot;white-space: normal; color: rgb(122, 126, 133);&quot;&gt;// en heroes.h&lt;/span&gt;&lt;/div&gt;&lt;/font&gt;&lt;div style=&quot;text-align: left;&quot;&gt;&lt;font face=&quot;JetBrains Mono, monospace&quot; color=&quot;#7a7e85&quot;&gt;&lt;br&gt;&lt;/font&gt;&lt;/div&gt;&lt;div style=&quot;text-align: left;&quot;&gt;&lt;font face=&quot;JetBrains Mono, monospace&quot; color=&quot;#7a7e85&quot;&gt;&lt;br&gt;&lt;/font&gt;&lt;/div&gt;&lt;div style=&quot;text-align: left;&quot;&gt;&lt;font face=&quot;JetBrains Mono, monospace&quot; color=&quot;#7a7e85&quot;&gt;&lt;br&gt;&lt;/font&gt;&lt;/div&gt;&lt;font face=&quot;JetBrains Mono, monospace&quot; color=&quot;#bcbec4&quot;&gt;&lt;div style=&quot;text-align: left;&quot;&gt;&lt;span style=&quot;white-space: normal;&quot;&gt;};&lt;/span&gt;&lt;/div&gt;&lt;div style=&quot;text-align: left;&quot;&gt;&lt;br&gt;&lt;/div&gt;&lt;/font&gt;&lt;div style=&quot;color: rgb(188, 190, 196); font-family: &amp;quot;JetBrains Mono&amp;quot;, monospace; text-align: left;&quot;&gt;&lt;span style=&quot;white-space: normal; color: rgb(179, 174, 96);&quot;&gt;#endif &lt;/span&gt;&lt;span style=&quot;white-space: normal; color: rgb(122, 126, 133);&quot;&gt;//HEROES_H&lt;/span&gt;&lt;/div&gt;&lt;/pre&gt;&lt;/div&gt;" style="rounded=0;whiteSpace=wrap;html=1;" vertex="1" parent="1">
          <mxGeometry x="-1030" y="660" width="730" height="790" as="geometry" />
        </mxCell>
        <mxCell id="eOPFmJKDIx5pttfgIMO1-29" style="edgeStyle=orthogonalEdgeStyle;rounded=0;orthogonalLoop=1;jettySize=auto;html=1;entryX=0.5;entryY=0;entryDx=0;entryDy=0;" edge="1" parent="1" source="eOPFmJKDIx5pttfgIMO1-3" target="eOPFmJKDIx5pttfgIMO1-28">
          <mxGeometry relative="1" as="geometry" />
        </mxCell>
        <mxCell id="eOPFmJKDIx5pttfgIMO1-3" value="&lt;div style=&quot;background-color: rgb(30, 31, 34);&quot;&gt;&lt;pre style=&quot;&quot;&gt;&lt;div style=&quot;color: rgb(188, 190, 196); font-family: &amp;quot;JetBrains Mono&amp;quot;, monospace; text-align: left;&quot;&gt;&lt;span style=&quot;white-space: normal; color: rgb(179, 174, 96);&quot;&gt;#ifndef &lt;/span&gt;&lt;span style=&quot;white-space: normal;&quot;&gt;VILLANOS_H&lt;/span&gt;&lt;/div&gt;&lt;span style=&quot;color: rgb(179, 174, 96); font-family: &amp;quot;JetBrains Mono&amp;quot;, monospace;&quot;&gt;&lt;div style=&quot;text-align: left;&quot;&gt;&lt;span style=&quot;white-space: normal;&quot;&gt;#define &lt;/span&gt;&lt;span style=&quot;color: rgb(188, 190, 196); white-space: normal;&quot;&gt;VILLANOS_H&lt;/span&gt;&lt;/div&gt;&lt;/span&gt;&lt;span style=&quot;color: rgb(179, 174, 96); font-family: &amp;quot;JetBrains Mono&amp;quot;, monospace;&quot;&gt;&lt;div style=&quot;text-align: left;&quot;&gt;&lt;span style=&quot;white-space: normal;&quot;&gt;#include &lt;/span&gt;&lt;span style=&quot;white-space: normal; color: rgb(106, 171, 115);&quot;&gt;&quot;personajes.h&quot;&lt;/span&gt;&lt;/div&gt;&lt;/span&gt;&lt;span style=&quot;color: rgb(207, 142, 109); font-family: &amp;quot;JetBrains Mono&amp;quot;, monospace;&quot;&gt;&lt;div style=&quot;text-align: left;&quot;&gt;&lt;span style=&quot;white-space: normal;&quot;&gt;using namespace &lt;/span&gt;&lt;span style=&quot;color: rgb(188, 190, 196); white-space: normal;&quot;&gt;std;&lt;/span&gt;&lt;/div&gt;&lt;/span&gt;&lt;div style=&quot;text-align: left;&quot;&gt;&lt;font face=&quot;JetBrains Mono, monospace&quot; color=&quot;#bcbec4&quot;&gt;&lt;br&gt;&lt;/font&gt;&lt;/div&gt;&lt;span style=&quot;color: rgb(207, 142, 109); font-family: &amp;quot;JetBrains Mono&amp;quot;, monospace;&quot;&gt;&lt;div style=&quot;text-align: left;&quot;&gt;&lt;span style=&quot;white-space: normal;&quot;&gt;enum class &lt;/span&gt;&lt;font style=&quot;white-space: normal;&quot; face=&quot;JetBrains Mono, monospace&quot; color=&quot;#bcbec4&quot;&gt;VillainType{DEMONIO, MINIBOSS,BOSS};&lt;/font&gt;&lt;/div&gt;&lt;/span&gt;&lt;font face=&quot;JetBrains Mono, monospace&quot; color=&quot;#bcbec4&quot;&gt;&lt;div style=&quot;text-align: left;&quot;&gt;&lt;br&gt;&lt;/div&gt;&lt;/font&gt;&lt;span style=&quot;color: rgb(207, 142, 109); font-family: &amp;quot;JetBrains Mono&amp;quot;, monospace;&quot;&gt;&lt;div style=&quot;text-align: left;&quot;&gt;&lt;span style=&quot;white-space: normal;&quot;&gt;class &lt;/span&gt;&lt;font style=&quot;white-space: normal;&quot; face=&quot;JetBrains Mono, monospace&quot; color=&quot;#bcbec4&quot;&gt;villanos : &lt;/font&gt;&lt;span style=&quot;white-space: normal;&quot;&gt;public &lt;/span&gt;&lt;font style=&quot;white-space: normal;&quot; face=&quot;JetBrains Mono, monospace&quot; color=&quot;#bcbec4&quot;&gt;personajes{&lt;/font&gt;&lt;/div&gt;&lt;/span&gt;&lt;font face=&quot;JetBrains Mono, monospace&quot; color=&quot;#bcbec4&quot;&gt;&lt;div style=&quot;text-align: left;&quot;&gt;&lt;font style=&quot;white-space: normal;&quot; face=&quot;JetBrains Mono, monospace&quot; color=&quot;#bcbec4&quot;&gt;    &lt;/font&gt;&lt;span style=&quot;white-space: normal; color: rgb(111, 115, 122);&quot;&gt;private:&lt;/span&gt;&lt;/div&gt;&lt;/font&gt;&lt;span style=&quot;color: rgb(111, 115, 122); font-family: &amp;quot;JetBrains Mono&amp;quot;, monospace;&quot;&gt;&lt;div style=&quot;text-align: left;&quot;&gt;&lt;span style=&quot;white-space: normal;&quot;&gt;        &lt;/span&gt;&lt;font style=&quot;white-space: normal;&quot; face=&quot;JetBrains Mono, monospace&quot; color=&quot;#bcbec4&quot;&gt;VillainType &lt;/font&gt;&lt;span style=&quot;white-space: normal; color: rgb(199, 125, 187);&quot;&gt;tipo&lt;/span&gt;&lt;font style=&quot;white-space: normal;&quot; face=&quot;JetBrains Mono, monospace&quot; color=&quot;#bcbec4&quot;&gt;;&lt;/font&gt;&lt;/div&gt;&lt;/span&gt;&lt;font face=&quot;JetBrains Mono, monospace&quot; color=&quot;#bcbec4&quot;&gt;&lt;div style=&quot;text-align: left;&quot;&gt;&lt;font style=&quot;white-space: normal;&quot; face=&quot;JetBrains Mono, monospace&quot; color=&quot;#bcbec4&quot;&gt;    &lt;/font&gt;&lt;span style=&quot;white-space: normal; color: rgb(207, 142, 109);&quot;&gt;public&lt;/span&gt;&lt;font style=&quot;white-space: normal;&quot; face=&quot;JetBrains Mono, monospace&quot; color=&quot;#bcbec4&quot;&gt;:&lt;/font&gt;&lt;/div&gt;&lt;/font&gt;&lt;font face=&quot;JetBrains Mono, monospace&quot; color=&quot;#bcbec4&quot;&gt;&lt;div style=&quot;text-align: left;&quot;&gt;&lt;font style=&quot;white-space: normal;&quot; face=&quot;JetBrains Mono, monospace&quot; color=&quot;#bcbec4&quot;&gt;        &lt;/font&gt;&lt;span style=&quot;white-space: normal; color: rgb(87, 170, 247);&quot;&gt;villanos&lt;/span&gt;&lt;font style=&quot;white-space: normal;&quot; face=&quot;JetBrains Mono, monospace&quot; color=&quot;#bcbec4&quot;&gt;(&lt;/font&gt;&lt;span style=&quot;white-space: normal; color: rgb(207, 142, 109);&quot;&gt;const &lt;/span&gt;&lt;font style=&quot;white-space: normal;&quot; face=&quot;JetBrains Mono, monospace&quot; color=&quot;#bcbec4&quot;&gt;string&amp;amp; nombre,&lt;/font&gt;&lt;span style=&quot;white-space: normal; color: rgb(207, 142, 109);&quot;&gt;int &lt;/span&gt;&lt;font style=&quot;white-space: normal;&quot; face=&quot;JetBrains Mono, monospace&quot; color=&quot;#bcbec4&quot;&gt;hp, &lt;/font&gt;&lt;span style=&quot;white-space: normal; color: rgb(207, 142, 109);&quot;&gt;int &lt;/span&gt;&lt;font style=&quot;white-space: normal;&quot; face=&quot;JetBrains Mono, monospace&quot; color=&quot;#bcbec4&quot;&gt;atk, &lt;/font&gt;&lt;span style=&quot;white-space: normal; color: rgb(207, 142, 109);&quot;&gt;int &lt;/span&gt;&lt;font style=&quot;white-space: normal;&quot; face=&quot;JetBrains Mono, monospace&quot; color=&quot;#bcbec4&quot;&gt;def,&lt;/font&gt;&lt;span style=&quot;white-space: normal; color: rgb(207, 142, 109);&quot;&gt;int &lt;/span&gt;&lt;font style=&quot;white-space: normal;&quot; face=&quot;JetBrains Mono, monospace&quot; color=&quot;#bcbec4&quot;&gt;spd, &lt;/font&gt;&lt;span style=&quot;white-space: normal; color: rgb(207, 142, 109);&quot;&gt;int &lt;/span&gt;&lt;font style=&quot;white-space: normal;&quot; face=&quot;JetBrains Mono, monospace&quot; color=&quot;#bcbec4&quot;&gt;lck, VillainType tipo );&lt;/font&gt;&lt;/div&gt;&lt;/font&gt;&lt;font face=&quot;JetBrains Mono, monospace&quot; color=&quot;#bcbec4&quot;&gt;&lt;div style=&quot;text-align: left;&quot;&gt;&lt;font style=&quot;white-space: normal;&quot; face=&quot;JetBrains Mono, monospace&quot; color=&quot;#bcbec4&quot;&gt;        &lt;/font&gt;&lt;span style=&quot;white-space: normal; color: rgb(207, 142, 109);&quot;&gt;virtual &lt;/span&gt;&lt;span style=&quot;white-space: normal; color: rgb(87, 170, 247);&quot;&gt;~villanos&lt;/span&gt;&lt;font style=&quot;white-space: normal;&quot; face=&quot;JetBrains Mono, monospace&quot; color=&quot;#bcbec4&quot;&gt;() = &lt;/font&gt;&lt;span style=&quot;white-space: normal; color: rgb(207, 142, 109);&quot;&gt;default&lt;/span&gt;&lt;font style=&quot;white-space: normal;&quot; face=&quot;JetBrains Mono, monospace&quot; color=&quot;#bcbec4&quot;&gt;;&lt;/font&gt;&lt;/div&gt;&lt;/font&gt;&lt;font face=&quot;JetBrains Mono, monospace&quot; color=&quot;#bcbec4&quot;&gt;&lt;div style=&quot;text-align: left;&quot;&gt;&lt;br&gt;&lt;/div&gt;&lt;div style=&quot;text-align: left;&quot;&gt;&lt;font style=&quot;white-space: normal;&quot; face=&quot;JetBrains Mono, monospace&quot; color=&quot;#bcbec4&quot;&gt;        &lt;/font&gt;&lt;span style=&quot;white-space: normal; color: rgb(207, 142, 109);&quot;&gt;void &lt;/span&gt;&lt;span style=&quot;white-space: normal; color: rgb(87, 170, 247);&quot;&gt;atacar&lt;/span&gt;&lt;font style=&quot;white-space: normal;&quot; face=&quot;JetBrains Mono, monospace&quot; color=&quot;#bcbec4&quot;&gt;(personajes* obj);&lt;/font&gt;&lt;/div&gt;&lt;/font&gt;&lt;font face=&quot;JetBrains Mono, monospace&quot; color=&quot;#bcbec4&quot;&gt;&lt;div style=&quot;text-align: left;&quot;&gt;&lt;font style=&quot;white-space: normal;&quot; face=&quot;JetBrains Mono, monospace&quot; color=&quot;#bcbec4&quot;&gt;&amp;nbsp; &amp;nbsp; &amp;nbsp; &amp;nbsp; VillainType &lt;/font&gt;&lt;span style=&quot;white-space: normal; color: rgb(87, 170, 247);&quot;&gt;getTipo&lt;/span&gt;&lt;font style=&quot;white-space: normal;&quot; face=&quot;JetBrains Mono, monospace&quot; color=&quot;#bcbec4&quot;&gt;() &lt;/font&gt;&lt;span style=&quot;white-space: normal; color: rgb(207, 142, 109);&quot;&gt;const&lt;/span&gt;&lt;font style=&quot;white-space: normal;&quot; face=&quot;JetBrains Mono, monospace&quot; color=&quot;#bcbec4&quot;&gt;;&lt;/font&gt;&lt;/div&gt;&lt;/font&gt;&lt;font face=&quot;JetBrains Mono, monospace&quot; color=&quot;#bcbec4&quot;&gt;&lt;div style=&quot;text-align: left;&quot;&gt;&lt;span style=&quot;white-space: normal;&quot;&gt;};&lt;/span&gt;&lt;/div&gt;&lt;div style=&quot;text-align: left;&quot;&gt;&lt;br&gt;&lt;/div&gt;&lt;/font&gt;&lt;span style=&quot;color: rgb(179, 174, 96); font-family: &amp;quot;JetBrains Mono&amp;quot;, monospace;&quot;&gt;&lt;div style=&quot;text-align: left;&quot;&gt;&lt;span style=&quot;white-space: normal;&quot;&gt;#endif &lt;/span&gt;&lt;span style=&quot;white-space: normal; color: rgb(122, 126, 133);&quot;&gt;//VILLANOS_H&lt;/span&gt;&lt;/div&gt;&lt;/span&gt;&lt;/pre&gt;&lt;/div&gt;" style="rounded=0;whiteSpace=wrap;html=1;" vertex="1" parent="1">
          <mxGeometry x="10" y="660" width="700" height="320" as="geometry" />
        </mxCell>
        <mxCell id="eOPFmJKDIx5pttfgIMO1-8" style="edgeStyle=orthogonalEdgeStyle;rounded=0;orthogonalLoop=1;jettySize=auto;html=1;exitX=0.75;exitY=1;exitDx=0;exitDy=0;entryX=0.5;entryY=0;entryDx=0;entryDy=0;" edge="1" parent="1" source="eOPFmJKDIx5pttfgIMO1-6" target="eOPFmJKDIx5pttfgIMO1-7">
          <mxGeometry relative="1" as="geometry" />
        </mxCell>
        <mxCell id="eOPFmJKDIx5pttfgIMO1-10" style="edgeStyle=orthogonalEdgeStyle;rounded=0;orthogonalLoop=1;jettySize=auto;html=1;entryX=0;entryY=0.5;entryDx=0;entryDy=0;" edge="1" parent="1" source="eOPFmJKDIx5pttfgIMO1-6" target="eOPFmJKDIx5pttfgIMO1-9">
          <mxGeometry relative="1" as="geometry" />
        </mxCell>
        <mxCell id="eOPFmJKDIx5pttfgIMO1-12" style="edgeStyle=orthogonalEdgeStyle;rounded=0;orthogonalLoop=1;jettySize=auto;html=1;exitX=0.75;exitY=1;exitDx=0;exitDy=0;entryX=0;entryY=0.5;entryDx=0;entryDy=0;" edge="1" parent="1" source="eOPFmJKDIx5pttfgIMO1-6" target="eOPFmJKDIx5pttfgIMO1-11">
          <mxGeometry relative="1" as="geometry" />
        </mxCell>
        <mxCell id="eOPFmJKDIx5pttfgIMO1-17" style="edgeStyle=orthogonalEdgeStyle;rounded=0;orthogonalLoop=1;jettySize=auto;html=1;exitX=0.25;exitY=0;exitDx=0;exitDy=0;entryX=0.5;entryY=0;entryDx=0;entryDy=0;" edge="1" parent="1" source="eOPFmJKDIx5pttfgIMO1-6" target="eOPFmJKDIx5pttfgIMO1-15">
          <mxGeometry relative="1" as="geometry">
            <Array as="points">
              <mxPoint x="1255" y="-220" />
              <mxPoint x="-1835" y="-220" />
            </Array>
          </mxGeometry>
        </mxCell>
        <mxCell id="eOPFmJKDIx5pttfgIMO1-6" value="&lt;div style=&quot;background-color: rgb(30, 31, 34);&quot;&gt;&lt;pre style=&quot;&quot;&gt;&lt;div style=&quot;color: rgb(188, 190, 196); font-family: &amp;quot;JetBrains Mono&amp;quot;, monospace; text-align: left;&quot;&gt;&lt;span style=&quot;white-space: normal; color: rgb(179, 174, 96);&quot;&gt;#ifndef &lt;/span&gt;&lt;span style=&quot;white-space: normal;&quot;&gt;ITEMS_H&lt;/span&gt;&lt;/div&gt;&lt;span style=&quot;color: rgb(179, 174, 96); font-family: &amp;quot;JetBrains Mono&amp;quot;, monospace;&quot;&gt;&lt;div style=&quot;text-align: left;&quot;&gt;&lt;span style=&quot;white-space: normal;&quot;&gt;#define &lt;/span&gt;&lt;span style=&quot;color: rgb(188, 190, 196); white-space: normal;&quot;&gt;ITEMS_H&lt;/span&gt;&lt;/div&gt;&lt;/span&gt;&lt;span style=&quot;color: rgb(179, 174, 96); font-family: &amp;quot;JetBrains Mono&amp;quot;, monospace;&quot;&gt;&lt;div style=&quot;text-align: left;&quot;&gt;&lt;span style=&quot;white-space: normal;&quot;&gt;#include &lt;/span&gt;&lt;span style=&quot;white-space: normal; color: rgb(106, 171, 115);&quot;&gt;&amp;lt;bits/stdc++.h&amp;gt;&lt;/span&gt;&lt;/div&gt;&lt;/span&gt;&lt;span style=&quot;color: rgb(179, 174, 96); font-family: &amp;quot;JetBrains Mono&amp;quot;, monospace;&quot;&gt;&lt;div style=&quot;text-align: left;&quot;&gt;&lt;span style=&quot;white-space: normal;&quot;&gt;#include &lt;/span&gt;&lt;span style=&quot;white-space: normal; color: rgb(106, 171, 115);&quot;&gt;&quot;heroes.h&quot;&lt;/span&gt;&lt;/div&gt;&lt;/span&gt;&lt;span style=&quot;color: rgb(207, 142, 109); font-family: &amp;quot;JetBrains Mono&amp;quot;, monospace;&quot;&gt;&lt;div style=&quot;text-align: left;&quot;&gt;&lt;span style=&quot;white-space: normal;&quot;&gt;using namespace &lt;/span&gt;&lt;span style=&quot;color: rgb(188, 190, 196); white-space: normal;&quot;&gt;std;&lt;/span&gt;&lt;/div&gt;&lt;/span&gt;&lt;span style=&quot;color: rgb(207, 142, 109); font-family: &amp;quot;JetBrains Mono&amp;quot;, monospace;&quot;&gt;&lt;div style=&quot;text-align: left;&quot;&gt;&lt;span style=&quot;white-space: normal;&quot;&gt;class &lt;/span&gt;&lt;span style=&quot;color: rgb(188, 190, 196); white-space: normal;&quot;&gt;heroes;&lt;/span&gt;&lt;/div&gt;&lt;/span&gt;&lt;div style=&quot;text-align: left;&quot;&gt;&lt;font face=&quot;JetBrains Mono, monospace&quot; color=&quot;#bcbec4&quot;&gt;&lt;br&gt;&lt;/font&gt;&lt;/div&gt;&lt;span style=&quot;color: rgb(207, 142, 109); font-family: &amp;quot;JetBrains Mono&amp;quot;, monospace;&quot;&gt;&lt;div style=&quot;text-align: left;&quot;&gt;&lt;span style=&quot;white-space: normal;&quot;&gt;enum class &lt;/span&gt;&lt;font style=&quot;white-space: normal;&quot; face=&quot;JetBrains Mono, monospace&quot; color=&quot;#bcbec4&quot;&gt;ItemType {ARMA, ARMADURA, POCIONATK, POCIONHP};&lt;/font&gt;&lt;/div&gt;&lt;/span&gt;&lt;font face=&quot;JetBrains Mono, monospace&quot; color=&quot;#bcbec4&quot;&gt;&lt;div style=&quot;text-align: left;&quot;&gt;&lt;br&gt;&lt;/div&gt;&lt;/font&gt;&lt;span style=&quot;color: rgb(207, 142, 109); font-family: &amp;quot;JetBrains Mono&amp;quot;, monospace;&quot;&gt;&lt;div style=&quot;text-align: left;&quot;&gt;&lt;span style=&quot;white-space: normal;&quot;&gt;class &lt;/span&gt;&lt;font style=&quot;white-space: normal;&quot; face=&quot;JetBrains Mono, monospace&quot; color=&quot;#bcbec4&quot;&gt;items {&lt;/font&gt;&lt;/div&gt;&lt;/span&gt;&lt;span style=&quot;color: rgb(207, 142, 109); font-family: &amp;quot;JetBrains Mono&amp;quot;, monospace;&quot;&gt;&lt;div style=&quot;text-align: left;&quot;&gt;&lt;span style=&quot;white-space: normal;&quot;&gt;protected&lt;/span&gt;&lt;font style=&quot;white-space: normal;&quot; face=&quot;JetBrains Mono, monospace&quot; color=&quot;#bcbec4&quot;&gt;:&lt;/font&gt;&lt;/div&gt;&lt;/span&gt;&lt;font face=&quot;JetBrains Mono, monospace&quot; color=&quot;#bcbec4&quot;&gt;&lt;div style=&quot;text-align: left;&quot;&gt;&lt;font style=&quot;white-space: normal;&quot; face=&quot;JetBrains Mono, monospace&quot; color=&quot;#bcbec4&quot;&gt;&amp;nbsp; &amp;nbsp; string &lt;/font&gt;&lt;span style=&quot;white-space: normal; color: rgb(199, 125, 187);&quot;&gt;nombre&lt;/span&gt;&lt;font style=&quot;white-space: normal;&quot; face=&quot;JetBrains Mono, monospace&quot; color=&quot;#bcbec4&quot;&gt;;&lt;/font&gt;&lt;/div&gt;&lt;/font&gt;&lt;font face=&quot;JetBrains Mono, monospace&quot; color=&quot;#bcbec4&quot;&gt;&lt;div style=&quot;text-align: left;&quot;&gt;&lt;font style=&quot;white-space: normal;&quot; face=&quot;JetBrains Mono, monospace&quot; color=&quot;#bcbec4&quot;&gt;&amp;nbsp; &amp;nbsp; string &lt;/font&gt;&lt;span style=&quot;white-space: normal; color: rgb(199, 125, 187);&quot;&gt;descripcion&lt;/span&gt;&lt;font style=&quot;white-space: normal;&quot; face=&quot;JetBrains Mono, monospace&quot; color=&quot;#bcbec4&quot;&gt;;&lt;/font&gt;&lt;/div&gt;&lt;/font&gt;&lt;font face=&quot;JetBrains Mono, monospace&quot; color=&quot;#bcbec4&quot;&gt;&lt;div style=&quot;text-align: left;&quot;&gt;&lt;font style=&quot;white-space: normal;&quot; face=&quot;JetBrains Mono, monospace&quot; color=&quot;#bcbec4&quot;&gt;    &lt;/font&gt;&lt;span style=&quot;white-space: normal; color: rgb(207, 142, 109);&quot;&gt;int &lt;/span&gt;&lt;span style=&quot;white-space: normal; color: rgb(199, 125, 187);&quot;&gt;duracion&lt;/span&gt;&lt;font style=&quot;white-space: normal;&quot; face=&quot;JetBrains Mono, monospace&quot; color=&quot;#bcbec4&quot;&gt;;&lt;/font&gt;&lt;/div&gt;&lt;/font&gt;&lt;font face=&quot;JetBrains Mono, monospace&quot; color=&quot;#bcbec4&quot;&gt;&lt;div style=&quot;text-align: left;&quot;&gt;&lt;font style=&quot;white-space: normal;&quot; face=&quot;JetBrains Mono, monospace&quot; color=&quot;#bcbec4&quot;&gt;&amp;nbsp; &amp;nbsp; ItemType &lt;/font&gt;&lt;span style=&quot;white-space: normal; color: rgb(199, 125, 187);&quot;&gt;tipo&lt;/span&gt;&lt;font style=&quot;white-space: normal;&quot; face=&quot;JetBrains Mono, monospace&quot; color=&quot;#bcbec4&quot;&gt;;&lt;/font&gt;&lt;/div&gt;&lt;/font&gt;&lt;font face=&quot;JetBrains Mono, monospace&quot; color=&quot;#bcbec4&quot;&gt;&lt;div style=&quot;text-align: left;&quot;&gt;&lt;font style=&quot;white-space: normal;&quot; face=&quot;JetBrains Mono, monospace&quot; color=&quot;#bcbec4&quot;&gt;    &lt;/font&gt;&lt;span style=&quot;white-space: normal; color: rgb(207, 142, 109);&quot;&gt;int &lt;/span&gt;&lt;span style=&quot;white-space: normal; color: rgb(199, 125, 187);&quot;&gt;precio&lt;/span&gt;&lt;font style=&quot;white-space: normal;&quot; face=&quot;JetBrains Mono, monospace&quot; color=&quot;#bcbec4&quot;&gt;;&lt;/font&gt;&lt;/div&gt;&lt;/font&gt;&lt;font face=&quot;JetBrains Mono, monospace&quot; color=&quot;#bcbec4&quot;&gt;&lt;div style=&quot;text-align: left;&quot;&gt;&lt;br&gt;&lt;/div&gt;&lt;/font&gt;&lt;span style=&quot;color: rgb(207, 142, 109); font-family: &amp;quot;JetBrains Mono&amp;quot;, monospace;&quot;&gt;&lt;div style=&quot;text-align: left;&quot;&gt;&lt;span style=&quot;white-space: normal;&quot;&gt;public&lt;/span&gt;&lt;font style=&quot;white-space: normal;&quot; face=&quot;JetBrains Mono, monospace&quot; color=&quot;#bcbec4&quot;&gt;:&lt;/font&gt;&lt;/div&gt;&lt;/span&gt;&lt;font face=&quot;JetBrains Mono, monospace&quot; color=&quot;#bcbec4&quot;&gt;&lt;div style=&quot;text-align: left;&quot;&gt;&lt;font style=&quot;white-space: normal;&quot; face=&quot;JetBrains Mono, monospace&quot; color=&quot;#bcbec4&quot;&gt;    &lt;/font&gt;&lt;span style=&quot;white-space: normal; color: rgb(87, 170, 247);&quot;&gt;items&lt;/span&gt;&lt;font style=&quot;white-space: normal;&quot; face=&quot;JetBrains Mono, monospace&quot; color=&quot;#bcbec4&quot;&gt;(&lt;/font&gt;&lt;span style=&quot;white-space: normal; color: rgb(207, 142, 109);&quot;&gt;const &lt;/span&gt;&lt;font style=&quot;white-space: normal;&quot; face=&quot;JetBrains Mono, monospace&quot; color=&quot;#bcbec4&quot;&gt;string&amp;amp; nombre, &lt;/font&gt;&lt;span style=&quot;white-space: normal; color: rgb(207, 142, 109);&quot;&gt;const &lt;/span&gt;&lt;font style=&quot;white-space: normal;&quot; face=&quot;JetBrains Mono, monospace&quot; color=&quot;#bcbec4&quot;&gt;string&amp;amp; descripcion, &lt;/font&gt;&lt;span style=&quot;white-space: normal; color: rgb(207, 142, 109);&quot;&gt;int &lt;/span&gt;&lt;font style=&quot;white-space: normal;&quot; face=&quot;JetBrains Mono, monospace&quot; color=&quot;#bcbec4&quot;&gt;duracion, ItemType tipo, &lt;/font&gt;&lt;span style=&quot;white-space: normal; color: rgb(207, 142, 109);&quot;&gt;int &lt;/span&gt;&lt;font style=&quot;white-space: normal;&quot; face=&quot;JetBrains Mono, monospace&quot; color=&quot;#bcbec4&quot;&gt;precio);&lt;/font&gt;&lt;/div&gt;&lt;/font&gt;&lt;font face=&quot;JetBrains Mono, monospace&quot; color=&quot;#bcbec4&quot;&gt;&lt;div style=&quot;text-align: left;&quot;&gt;&lt;font style=&quot;white-space: normal;&quot; face=&quot;JetBrains Mono, monospace&quot; color=&quot;#bcbec4&quot;&gt;    &lt;/font&gt;&lt;span style=&quot;white-space: normal; color: rgb(207, 142, 109);&quot;&gt;virtual &lt;/span&gt;&lt;span style=&quot;white-space: normal; color: rgb(87, 170, 247);&quot;&gt;~items&lt;/span&gt;&lt;font style=&quot;white-space: normal;&quot; face=&quot;JetBrains Mono, monospace&quot; color=&quot;#bcbec4&quot;&gt;();&lt;/font&gt;&lt;/div&gt;&lt;/font&gt;&lt;font face=&quot;JetBrains Mono, monospace&quot; color=&quot;#bcbec4&quot;&gt;&lt;div style=&quot;text-align: left;&quot;&gt;&lt;font style=&quot;white-space: normal;&quot; face=&quot;JetBrains Mono, monospace&quot; color=&quot;#bcbec4&quot;&gt;    &lt;/font&gt;&lt;span style=&quot;white-space: normal; color: rgb(207, 142, 109);&quot;&gt;virtual &lt;/span&gt;&lt;font style=&quot;white-space: normal;&quot; face=&quot;JetBrains Mono, monospace&quot; color=&quot;#bcbec4&quot;&gt;items* &lt;/font&gt;&lt;span style=&quot;white-space: normal; color: rgb(87, 170, 247);&quot;&gt;clonar&lt;/span&gt;&lt;font style=&quot;white-space: normal;&quot; face=&quot;JetBrains Mono, monospace&quot; color=&quot;#bcbec4&quot;&gt;() &lt;/font&gt;&lt;span style=&quot;white-space: normal; color: rgb(207, 142, 109);&quot;&gt;const &lt;/span&gt;&lt;font style=&quot;white-space: normal;&quot; face=&quot;JetBrains Mono, monospace&quot; color=&quot;#bcbec4&quot;&gt;= &lt;/font&gt;&lt;span style=&quot;white-space: normal; color: rgb(42, 172, 184);&quot;&gt;0&lt;/span&gt;&lt;font style=&quot;white-space: normal;&quot; face=&quot;JetBrains Mono, monospace&quot; color=&quot;#bcbec4&quot;&gt;;&lt;/font&gt;&lt;/div&gt;&lt;/font&gt;&lt;font face=&quot;JetBrains Mono, monospace&quot; color=&quot;#bcbec4&quot;&gt;&lt;div style=&quot;text-align: left;&quot;&gt;&lt;br&gt;&lt;/div&gt;&lt;div style=&quot;text-align: left;&quot;&gt;&lt;font style=&quot;white-space: normal;&quot; face=&quot;JetBrains Mono, monospace&quot; color=&quot;#bcbec4&quot;&gt;    &lt;/font&gt;&lt;span style=&quot;white-space: normal; color: rgb(207, 142, 109);&quot;&gt;virtual void &lt;/span&gt;&lt;span style=&quot;white-space: normal; color: rgb(87, 170, 247);&quot;&gt;usar&lt;/span&gt;&lt;font style=&quot;white-space: normal;&quot; face=&quot;JetBrains Mono, monospace&quot; color=&quot;#bcbec4&quot;&gt;(heroes* h) = &lt;/font&gt;&lt;span style=&quot;white-space: normal; color: rgb(42, 172, 184);&quot;&gt;0&lt;/span&gt;&lt;font style=&quot;white-space: normal;&quot; face=&quot;JetBrains Mono, monospace&quot; color=&quot;#bcbec4&quot;&gt;;&lt;/font&gt;&lt;/div&gt;&lt;/font&gt;&lt;font face=&quot;JetBrains Mono, monospace&quot; color=&quot;#bcbec4&quot;&gt;&lt;div style=&quot;text-align: left;&quot;&gt;&lt;font style=&quot;white-space: normal;&quot; face=&quot;JetBrains Mono, monospace&quot; color=&quot;#bcbec4&quot;&gt;    &lt;/font&gt;&lt;span style=&quot;white-space: normal; color: rgb(207, 142, 109);&quot;&gt;int &lt;/span&gt;&lt;span style=&quot;white-space: normal; color: rgb(87, 170, 247);&quot;&gt;getPrecio&lt;/span&gt;&lt;font style=&quot;white-space: normal;&quot; face=&quot;JetBrains Mono, monospace&quot; color=&quot;#bcbec4&quot;&gt;() &lt;/font&gt;&lt;span style=&quot;white-space: normal; color: rgb(207, 142, 109);&quot;&gt;const&lt;/span&gt;&lt;font style=&quot;white-space: normal;&quot; face=&quot;JetBrains Mono, monospace&quot; color=&quot;#bcbec4&quot;&gt;;&lt;/font&gt;&lt;/div&gt;&lt;/font&gt;&lt;font face=&quot;JetBrains Mono, monospace&quot; color=&quot;#bcbec4&quot;&gt;&lt;div style=&quot;text-align: left;&quot;&gt;&lt;br&gt;&lt;/div&gt;&lt;div style=&quot;text-align: left;&quot;&gt;&lt;font style=&quot;white-space: normal;&quot; face=&quot;JetBrains Mono, monospace&quot; color=&quot;#bcbec4&quot;&gt;&amp;nbsp; &amp;nbsp; string &lt;/font&gt;&lt;span style=&quot;white-space: normal; color: rgb(87, 170, 247);&quot;&gt;getNombre&lt;/span&gt;&lt;font style=&quot;white-space: normal;&quot; face=&quot;JetBrains Mono, monospace&quot; color=&quot;#bcbec4&quot;&gt;() &lt;/font&gt;&lt;span style=&quot;white-space: normal; color: rgb(207, 142, 109);&quot;&gt;const&lt;/span&gt;&lt;font style=&quot;white-space: normal;&quot; face=&quot;JetBrains Mono, monospace&quot; color=&quot;#bcbec4&quot;&gt;;&lt;/font&gt;&lt;/div&gt;&lt;/font&gt;&lt;font face=&quot;JetBrains Mono, monospace&quot; color=&quot;#bcbec4&quot;&gt;&lt;div style=&quot;text-align: left;&quot;&gt;&lt;font style=&quot;white-space: normal;&quot; face=&quot;JetBrains Mono, monospace&quot; color=&quot;#bcbec4&quot;&gt;&amp;nbsp; &amp;nbsp; string &lt;/font&gt;&lt;span style=&quot;white-space: normal; color: rgb(87, 170, 247);&quot;&gt;getDescripcion&lt;/span&gt;&lt;font style=&quot;white-space: normal;&quot; face=&quot;JetBrains Mono, monospace&quot; color=&quot;#bcbec4&quot;&gt;() &lt;/font&gt;&lt;span style=&quot;white-space: normal; color: rgb(207, 142, 109);&quot;&gt;const&lt;/span&gt;&lt;font style=&quot;white-space: normal;&quot; face=&quot;JetBrains Mono, monospace&quot; color=&quot;#bcbec4&quot;&gt;;&lt;/font&gt;&lt;/div&gt;&lt;/font&gt;&lt;font face=&quot;JetBrains Mono, monospace&quot; color=&quot;#bcbec4&quot;&gt;&lt;div style=&quot;text-align: left;&quot;&gt;&lt;font style=&quot;white-space: normal;&quot; face=&quot;JetBrains Mono, monospace&quot; color=&quot;#bcbec4&quot;&gt;&amp;nbsp; &amp;nbsp; ItemType &lt;/font&gt;&lt;span style=&quot;white-space: normal; color: rgb(87, 170, 247);&quot;&gt;getTipo&lt;/span&gt;&lt;font style=&quot;white-space: normal;&quot; face=&quot;JetBrains Mono, monospace&quot; color=&quot;#bcbec4&quot;&gt;() &lt;/font&gt;&lt;span style=&quot;white-space: normal; color: rgb(207, 142, 109);&quot;&gt;const&lt;/span&gt;&lt;font style=&quot;white-space: normal;&quot; face=&quot;JetBrains Mono, monospace&quot; color=&quot;#bcbec4&quot;&gt;;&lt;/font&gt;&lt;/div&gt;&lt;/font&gt;&lt;font face=&quot;JetBrains Mono, monospace&quot; color=&quot;#bcbec4&quot;&gt;&lt;div style=&quot;text-align: left;&quot;&gt;&lt;font style=&quot;white-space: normal;&quot; face=&quot;JetBrains Mono, monospace&quot; color=&quot;#bcbec4&quot;&gt;    &lt;/font&gt;&lt;span style=&quot;white-space: normal; color: rgb(207, 142, 109);&quot;&gt;int &lt;/span&gt;&lt;span style=&quot;white-space: normal; color: rgb(87, 170, 247);&quot;&gt;getDuracion&lt;/span&gt;&lt;font style=&quot;white-space: normal;&quot; face=&quot;JetBrains Mono, monospace&quot; color=&quot;#bcbec4&quot;&gt;() &lt;/font&gt;&lt;span style=&quot;white-space: normal; color: rgb(207, 142, 109);&quot;&gt;const&lt;/span&gt;&lt;font style=&quot;white-space: normal;&quot; face=&quot;JetBrains Mono, monospace&quot; color=&quot;#bcbec4&quot;&gt;;&lt;/font&gt;&lt;/div&gt;&lt;/font&gt;&lt;font face=&quot;JetBrains Mono, monospace&quot; color=&quot;#bcbec4&quot;&gt;&lt;div style=&quot;text-align: left;&quot;&gt;&lt;br&gt;&lt;/div&gt;&lt;div style=&quot;text-align: left;&quot;&gt;&lt;br&gt;&lt;/div&gt;&lt;div style=&quot;text-align: left;&quot;&gt;&lt;font style=&quot;white-space: normal;&quot; face=&quot;JetBrains Mono, monospace&quot; color=&quot;#bcbec4&quot;&gt;    &lt;/font&gt;&lt;span style=&quot;white-space: normal; color: rgb(207, 142, 109);&quot;&gt;void &lt;/span&gt;&lt;span style=&quot;white-space: normal; color: rgb(87, 170, 247);&quot;&gt;reducirDuracion&lt;/span&gt;&lt;font style=&quot;white-space: normal;&quot; face=&quot;JetBrains Mono, monospace&quot; color=&quot;#bcbec4&quot;&gt;();&lt;/font&gt;&lt;/div&gt;&lt;/font&gt;&lt;font face=&quot;JetBrains Mono, monospace&quot; color=&quot;#bcbec4&quot;&gt;&lt;div style=&quot;text-align: left;&quot;&gt;&lt;br&gt;&lt;/div&gt;&lt;div style=&quot;text-align: left;&quot;&gt;&lt;span style=&quot;white-space: normal;&quot;&gt;};&lt;/span&gt;&lt;/div&gt;&lt;div style=&quot;text-align: left;&quot;&gt;&lt;br&gt;&lt;/div&gt;&lt;/font&gt;&lt;span style=&quot;color: rgb(179, 174, 96); font-family: &amp;quot;JetBrains Mono&amp;quot;, monospace;&quot;&gt;&lt;div style=&quot;text-align: left;&quot;&gt;&lt;span style=&quot;white-space: normal;&quot;&gt;#endif &lt;/span&gt;&lt;span style=&quot;white-space: normal; color: rgb(122, 126, 133);&quot;&gt;//ITEMS_H&lt;/span&gt;&lt;/div&gt;&lt;/span&gt;&lt;/pre&gt;&lt;/div&gt;" style="rounded=0;whiteSpace=wrap;html=1;" vertex="1" parent="1">
          <mxGeometry x="1090" y="-40" width="660" height="540" as="geometry" />
        </mxCell>
        <mxCell id="eOPFmJKDIx5pttfgIMO1-20" style="edgeStyle=orthogonalEdgeStyle;rounded=0;orthogonalLoop=1;jettySize=auto;html=1;exitX=0;exitY=0.25;exitDx=0;exitDy=0;entryX=1;entryY=0.5;entryDx=0;entryDy=0;" edge="1" parent="1" source="eOPFmJKDIx5pttfgIMO1-7" target="eOPFmJKDIx5pttfgIMO1-18">
          <mxGeometry relative="1" as="geometry" />
        </mxCell>
        <mxCell id="eOPFmJKDIx5pttfgIMO1-7" value="&lt;div style=&quot;background-color:#1e1f22;color:#bcbec4&quot;&gt;&lt;pre style=&quot;font-family:&#39;JetBrains Mono&#39;,monospace;font-size:9,8pt;&quot;&gt;&lt;span style=&quot;color:#b3ae60;&quot;&gt;#ifndef &lt;/span&gt;POSCIONES_H&lt;br&gt;&lt;span style=&quot;color:#b3ae60;&quot;&gt;#define &lt;/span&gt;POSCIONES_H&lt;br&gt;&lt;span style=&quot;color:#b3ae60;&quot;&gt;#include &lt;/span&gt;&lt;span style=&quot;color:#6aab73;&quot;&gt;&quot;items.h&quot;&lt;br&gt;&lt;/span&gt;&lt;span style=&quot;color:#6aab73;&quot;&gt;&lt;br&gt;&lt;/span&gt;&lt;span style=&quot;color:#cf8e6d;&quot;&gt;class &lt;/span&gt;pociones : &lt;span style=&quot;color:#cf8e6d;&quot;&gt;public &lt;/span&gt;items {&lt;br&gt;&lt;span style=&quot;color:#6f737a;&quot;&gt;private:&lt;br&gt;&lt;/span&gt;&lt;span style=&quot;color:#6f737a;&quot;&gt;    &lt;/span&gt;&lt;span style=&quot;color:#cf8e6d;&quot;&gt;int &lt;/span&gt;&lt;span style=&quot;color:#c77dbb;&quot;&gt;efecto&lt;/span&gt;;&lt;br&gt;&lt;span style=&quot;color:#cf8e6d;&quot;&gt;public&lt;/span&gt;:&lt;br&gt;    &lt;span style=&quot;color:#57aaf7;&quot;&gt;pociones&lt;/span&gt;(&lt;span style=&quot;color:#cf8e6d;&quot;&gt;const &lt;/span&gt;string&amp;amp; nombre, &lt;span style=&quot;color:#cf8e6d;&quot;&gt;const &lt;/span&gt;string&amp;amp; descripcion, &lt;span style=&quot;color:#cf8e6d;&quot;&gt;int &lt;/span&gt;efecto, &lt;span style=&quot;color:#cf8e6d;&quot;&gt;int &lt;/span&gt;duracion, ItemType tipo, &lt;span style=&quot;color:#cf8e6d;&quot;&gt;int &lt;/span&gt;precio);&lt;br&gt;&lt;br&gt;    &lt;span style=&quot;color:#cf8e6d;&quot;&gt;void &lt;/span&gt;&lt;span style=&quot;color:#57aaf7;&quot;&gt;usar&lt;/span&gt;(heroes* h) &lt;span style=&quot;color:#cf8e6d;&quot;&gt;override&lt;/span&gt;;&lt;br&gt;    &lt;span style=&quot;color:#cf8e6d;&quot;&gt;int &lt;/span&gt;&lt;span style=&quot;color:#57aaf7;&quot;&gt;getEfecto&lt;/span&gt;() &lt;span style=&quot;color:#cf8e6d;&quot;&gt;const&lt;/span&gt;;&lt;br&gt;    items* &lt;span style=&quot;color:#57aaf7;&quot;&gt;clonar&lt;/span&gt;() &lt;span style=&quot;color:#cf8e6d;&quot;&gt;const override&lt;/span&gt;;&lt;br&gt;&lt;br&gt;};&lt;br&gt;&lt;br&gt;&lt;span style=&quot;color:#b3ae60;&quot;&gt;#endif &lt;/span&gt;&lt;span style=&quot;color:#7a7e85;&quot;&gt;//POSCIONES_H&lt;br&gt;&lt;/span&gt;&lt;/pre&gt;&lt;/div&gt;" style="rounded=0;whiteSpace=wrap;html=1;align=left;" vertex="1" parent="1">
          <mxGeometry x="1690" y="720" width="870" height="300" as="geometry" />
        </mxCell>
        <mxCell id="eOPFmJKDIx5pttfgIMO1-21" style="edgeStyle=orthogonalEdgeStyle;rounded=0;orthogonalLoop=1;jettySize=auto;html=1;exitX=0;exitY=0.5;exitDx=0;exitDy=0;entryX=1;entryY=0.25;entryDx=0;entryDy=0;" edge="1" parent="1" source="eOPFmJKDIx5pttfgIMO1-9" target="eOPFmJKDIx5pttfgIMO1-18">
          <mxGeometry relative="1" as="geometry" />
        </mxCell>
        <mxCell id="eOPFmJKDIx5pttfgIMO1-9" value="&lt;div style=&quot;background-color:#1e1f22;color:#bcbec4&quot;&gt;&lt;pre style=&quot;font-family:&#39;JetBrains Mono&#39;,monospace;font-size:9,8pt;&quot;&gt;&lt;span style=&quot;color:#b3ae60;&quot;&gt;#ifndef &lt;/span&gt;ARMAS_H&lt;br&gt;&lt;span style=&quot;color:#b3ae60;&quot;&gt;#define &lt;/span&gt;ARMAS_H&lt;br&gt;&lt;span style=&quot;color:#b3ae60;&quot;&gt;#include &lt;/span&gt;&lt;span style=&quot;color:#6aab73;&quot;&gt;&quot;items.h&quot;&lt;br&gt;&lt;/span&gt;&lt;span style=&quot;color:#cf8e6d;&quot;&gt;class &lt;/span&gt;armas : &lt;span style=&quot;color:#cf8e6d;&quot;&gt;public &lt;/span&gt;items {&lt;br&gt;&lt;span style=&quot;color:#6f737a;&quot;&gt;private:&lt;br&gt;&lt;/span&gt;&lt;span style=&quot;color:#6f737a;&quot;&gt;    &lt;/span&gt;&lt;span style=&quot;color:#cf8e6d;&quot;&gt;int &lt;/span&gt;&lt;span style=&quot;color:#c77dbb;&quot;&gt;bonusAtk&lt;/span&gt;;&lt;br&gt;&lt;span style=&quot;color:#cf8e6d;&quot;&gt;public&lt;/span&gt;:&lt;br&gt;    &lt;span style=&quot;color:#57aaf7;&quot;&gt;armas&lt;/span&gt;(&lt;span style=&quot;color:#cf8e6d;&quot;&gt;const &lt;/span&gt;string&amp;amp; nombre, &lt;span style=&quot;color:#cf8e6d;&quot;&gt;const &lt;/span&gt;string&amp;amp; descripcion, &lt;span style=&quot;color:#cf8e6d;&quot;&gt;int &lt;/span&gt;duracion, &lt;span style=&quot;color:#cf8e6d;&quot;&gt;int &lt;/span&gt;precio, &lt;span style=&quot;color:#cf8e6d;&quot;&gt;int &lt;/span&gt;bonusAtk);&lt;br&gt;    &lt;span style=&quot;color:#cf8e6d;&quot;&gt;void &lt;/span&gt;&lt;span style=&quot;color:#57aaf7;&quot;&gt;usar&lt;/span&gt;(heroes* h) &lt;span style=&quot;color:#cf8e6d;&quot;&gt;override&lt;/span&gt;;&lt;br&gt;    &lt;span style=&quot;color:#cf8e6d;&quot;&gt;int &lt;/span&gt;&lt;span style=&quot;color:#57aaf7;&quot;&gt;getbonusAtk&lt;/span&gt;() &lt;span style=&quot;color:#cf8e6d;&quot;&gt;const&lt;/span&gt;;&lt;br&gt;    items* &lt;span style=&quot;color:#57aaf7;&quot;&gt;clonar&lt;/span&gt;() &lt;span style=&quot;color:#cf8e6d;&quot;&gt;const override&lt;/span&gt;;&lt;br&gt;&lt;br&gt;};&lt;br&gt;&lt;br&gt;&lt;span style=&quot;color:#b3ae60;&quot;&gt;#endif &lt;/span&gt;&lt;span style=&quot;color:#7a7e85;&quot;&gt;//ARMAS_H&lt;br&gt;&lt;/span&gt;&lt;/pre&gt;&lt;/div&gt;" style="rounded=0;whiteSpace=wrap;html=1;align=left;" vertex="1" parent="1">
          <mxGeometry x="1690" y="1090" width="870" height="280" as="geometry" />
        </mxCell>
        <mxCell id="eOPFmJKDIx5pttfgIMO1-22" style="edgeStyle=orthogonalEdgeStyle;rounded=0;orthogonalLoop=1;jettySize=auto;html=1;exitX=0;exitY=0.5;exitDx=0;exitDy=0;entryX=1;entryY=0.75;entryDx=0;entryDy=0;" edge="1" parent="1" source="eOPFmJKDIx5pttfgIMO1-11" target="eOPFmJKDIx5pttfgIMO1-18">
          <mxGeometry relative="1" as="geometry" />
        </mxCell>
        <mxCell id="eOPFmJKDIx5pttfgIMO1-11" value="&lt;div style=&quot;background-color:#1e1f22;color:#bcbec4&quot;&gt;&lt;pre style=&quot;font-family:&#39;JetBrains Mono&#39;,monospace;font-size:9,8pt;&quot;&gt;&lt;span style=&quot;color:#b3ae60;&quot;&gt;#ifndef &lt;/span&gt;ARMADURA_H&lt;br&gt;&lt;span style=&quot;color:#b3ae60;&quot;&gt;#define &lt;/span&gt;ARMADURA_H&lt;br&gt;&lt;span style=&quot;color:#b3ae60;&quot;&gt;#include &lt;/span&gt;&lt;span style=&quot;color:#6aab73;&quot;&gt;&quot;items.h&quot;&lt;br&gt;&lt;/span&gt;&lt;span style=&quot;color:#cf8e6d;&quot;&gt;class &lt;/span&gt;armadura : &lt;span style=&quot;color:#cf8e6d;&quot;&gt;public &lt;/span&gt;items {&lt;br&gt;&lt;span style=&quot;color:#6f737a;&quot;&gt;private:&lt;br&gt;&lt;/span&gt;&lt;span style=&quot;color:#6f737a;&quot;&gt;    &lt;/span&gt;&lt;span style=&quot;color:#cf8e6d;&quot;&gt;int &lt;/span&gt;&lt;span style=&quot;color:#c77dbb;&quot;&gt;resistencia&lt;/span&gt;;&lt;br&gt;&lt;span style=&quot;color:#cf8e6d;&quot;&gt;public&lt;/span&gt;:&lt;br&gt;    &lt;span style=&quot;color:#57aaf7;&quot;&gt;armadura&lt;/span&gt;(&lt;span style=&quot;color:#cf8e6d;&quot;&gt;const &lt;/span&gt;string&amp;amp; nombre, &lt;span style=&quot;color:#cf8e6d;&quot;&gt;const &lt;/span&gt;string&amp;amp; descripcion, &lt;span style=&quot;color:#cf8e6d;&quot;&gt;int &lt;/span&gt;duracion,&lt;span style=&quot;color:#cf8e6d;&quot;&gt;int &lt;/span&gt;precio, &lt;span style=&quot;color:#cf8e6d;&quot;&gt;int &lt;/span&gt;resistencia);&lt;br&gt;    &lt;span style=&quot;color:#cf8e6d;&quot;&gt;void &lt;/span&gt;&lt;span style=&quot;color:#57aaf7;&quot;&gt;usar&lt;/span&gt;(heroes* h) &lt;span style=&quot;color:#cf8e6d;&quot;&gt;override&lt;/span&gt;;&lt;br&gt;    &lt;span style=&quot;color:#cf8e6d;&quot;&gt;int &lt;/span&gt;&lt;span style=&quot;color:#57aaf7;&quot;&gt;getResistencia&lt;/span&gt;() &lt;span style=&quot;color:#cf8e6d;&quot;&gt;const&lt;/span&gt;;&lt;br&gt;    items* &lt;span style=&quot;color:#57aaf7;&quot;&gt;clonar&lt;/span&gt;() &lt;span style=&quot;color:#cf8e6d;&quot;&gt;const override&lt;/span&gt;;&lt;br&gt;&lt;br&gt;};&lt;br&gt;&lt;br&gt;&lt;span style=&quot;color:#b3ae60;&quot;&gt;#endif &lt;/span&gt;&lt;span style=&quot;color:#7a7e85;&quot;&gt;//ARMADURA_H&lt;br&gt;&lt;/span&gt;&lt;/pre&gt;&lt;/div&gt;" style="rounded=0;whiteSpace=wrap;html=1;align=left;" vertex="1" parent="1">
          <mxGeometry x="1690" y="1454" width="880" height="300" as="geometry" />
        </mxCell>
        <mxCell id="eOPFmJKDIx5pttfgIMO1-13" value="&lt;div style=&quot;background-color:#1e1f22;color:#bcbec4&quot;&gt;&lt;pre style=&quot;font-family:&#39;JetBrains Mono&#39;,monospace;font-size:9,8pt;&quot;&gt;&lt;span style=&quot;color:#b3ae60;&quot;&gt;#ifndef &lt;/span&gt;DESCANSO_H&lt;br&gt;&lt;span style=&quot;color:#b3ae60;&quot;&gt;#define &lt;/span&gt;DESCANSO_H&lt;br&gt;&lt;br&gt;&lt;span style=&quot;color:#b3ae60;&quot;&gt;#include &lt;/span&gt;&lt;span style=&quot;color:#6aab73;&quot;&gt;&quot;heroes.h&quot;&lt;br&gt;&lt;/span&gt;&lt;span style=&quot;color:#b3ae60;&quot;&gt;#include &lt;/span&gt;&lt;span style=&quot;color:#6aab73;&quot;&gt;&quot;inventario.h&quot;&lt;br&gt;&lt;/span&gt;&lt;span style=&quot;color:#b3ae60;&quot;&gt;#include &lt;/span&gt;&lt;span style=&quot;color:#6aab73;&quot;&gt;&quot;tienda.h&quot;&lt;br&gt;&lt;/span&gt;&lt;span style=&quot;color:#b3ae60;&quot;&gt;#include &lt;/span&gt;&lt;span style=&quot;color:#6aab73;&quot;&gt;&amp;lt;vector&amp;gt;&lt;br&gt;&lt;/span&gt;&lt;span style=&quot;color:#cf8e6d;&quot;&gt;using namespace &lt;/span&gt;std;&lt;br&gt;&lt;br&gt;&lt;span style=&quot;color:#cf8e6d;&quot;&gt;class &lt;/span&gt;AreaDescanso {&lt;br&gt;&lt;span style=&quot;color:#cf8e6d;&quot;&gt;public&lt;/span&gt;:&lt;br&gt;    &lt;span style=&quot;color:#cf8e6d;&quot;&gt;static void &lt;/span&gt;&lt;span style=&quot;color:#57aaf7;font-style:italic;&quot;&gt;mostrarOpciones&lt;/span&gt;(vector&amp;lt;heroes*&amp;gt;&amp;amp; equipo, inventario&amp;amp; inv, tienda&amp;amp; t);&lt;br&gt;&lt;br&gt;    &lt;span style=&quot;color:#cf8e6d;&quot;&gt;static void &lt;/span&gt;&lt;span style=&quot;color:#57aaf7;font-style:italic;&quot;&gt;curarEquipo&lt;/span&gt;(vector&amp;lt;heroes*&amp;gt;&amp;amp; equipo);&lt;br&gt;};&lt;br&gt;&lt;br&gt;&lt;div style=&quot;&quot;&gt;&lt;span style=&quot;white-space: normal; color: rgb(179, 174, 96);&quot;&gt;#endif &lt;/span&gt;&lt;span style=&quot;white-space: normal; color: rgb(122, 126, 133);&quot;&gt;// DESCANSO_H&lt;/span&gt;&lt;/div&gt;&lt;/pre&gt;&lt;/div&gt;" style="rounded=0;whiteSpace=wrap;html=1;align=left;" vertex="1" parent="1">
          <mxGeometry x="-2180" y="1010" width="650" height="290" as="geometry" />
        </mxCell>
        <mxCell id="eOPFmJKDIx5pttfgIMO1-16" style="edgeStyle=orthogonalEdgeStyle;rounded=0;orthogonalLoop=1;jettySize=auto;html=1;entryX=0.5;entryY=0;entryDx=0;entryDy=0;" edge="1" parent="1" source="eOPFmJKDIx5pttfgIMO1-15" target="eOPFmJKDIx5pttfgIMO1-13">
          <mxGeometry relative="1" as="geometry" />
        </mxCell>
        <mxCell id="eOPFmJKDIx5pttfgIMO1-24" style="edgeStyle=orthogonalEdgeStyle;rounded=0;orthogonalLoop=1;jettySize=auto;html=1;exitX=0.75;exitY=1;exitDx=0;exitDy=0;entryX=0.25;entryY=0;entryDx=0;entryDy=0;" edge="1" parent="1" source="eOPFmJKDIx5pttfgIMO1-15" target="eOPFmJKDIx5pttfgIMO1-18">
          <mxGeometry relative="1" as="geometry">
            <Array as="points">
              <mxPoint x="-1722" y="940" />
              <mxPoint x="-1300" y="940" />
              <mxPoint x="-1300" y="1530" />
              <mxPoint x="-580" y="1530" />
            </Array>
          </mxGeometry>
        </mxCell>
        <mxCell id="eOPFmJKDIx5pttfgIMO1-27" style="edgeStyle=orthogonalEdgeStyle;rounded=0;orthogonalLoop=1;jettySize=auto;html=1;exitX=0;exitY=0.5;exitDx=0;exitDy=0;entryX=0.25;entryY=0;entryDx=0;entryDy=0;" edge="1" parent="1" source="eOPFmJKDIx5pttfgIMO1-15" target="eOPFmJKDIx5pttfgIMO1-25">
          <mxGeometry relative="1" as="geometry">
            <Array as="points">
              <mxPoint x="-2340" y="415" />
              <mxPoint x="-2340" y="1500" />
              <mxPoint x="-1975" y="1500" />
            </Array>
          </mxGeometry>
        </mxCell>
        <mxCell id="eOPFmJKDIx5pttfgIMO1-35" style="edgeStyle=orthogonalEdgeStyle;rounded=0;orthogonalLoop=1;jettySize=auto;html=1;entryX=0.75;entryY=0;entryDx=0;entryDy=0;" edge="1" parent="1" source="eOPFmJKDIx5pttfgIMO1-15" target="eOPFmJKDIx5pttfgIMO1-18">
          <mxGeometry relative="1" as="geometry">
            <Array as="points">
              <mxPoint x="-230" y="560" />
              <mxPoint x="-230" y="1720" />
              <mxPoint x="-320" y="1720" />
            </Array>
          </mxGeometry>
        </mxCell>
        <mxCell id="eOPFmJKDIx5pttfgIMO1-15" value="&lt;div style=&quot;background-color:#1e1f22;color:#bcbec4&quot;&gt;&lt;pre style=&quot;font-family:&#39;JetBrains Mono&#39;,monospace;font-size:9,8pt;&quot;&gt;&lt;span style=&quot;color:#b3ae60;&quot;&gt;#ifndef &lt;/span&gt;INVENTARIO_H&lt;br&gt;&lt;span style=&quot;color:#b3ae60;&quot;&gt;#define &lt;/span&gt;INVENTARIO_H&lt;br&gt;&lt;span style=&quot;color:#b3ae60;&quot;&gt;#include &lt;/span&gt;&lt;span style=&quot;color:#6aab73;&quot;&gt;&amp;lt;bits/stdc++.h&amp;gt;&lt;br&gt;&lt;/span&gt;&lt;span style=&quot;color:#b3ae60;&quot;&gt;#include &lt;/span&gt;&lt;span style=&quot;color:#6aab73;&quot;&gt;&quot;items.h&quot;&lt;br&gt;&lt;/span&gt;&lt;span style=&quot;color:#cf8e6d;&quot;&gt;using namespace &lt;/span&gt;std;&lt;br&gt;&lt;br&gt;&lt;span style=&quot;color:#cf8e6d;&quot;&gt;class &lt;/span&gt;inventario {&lt;br&gt;&lt;span style=&quot;color:#6f737a;&quot;&gt;private:&lt;br&gt;&lt;/span&gt;&lt;span style=&quot;color:#6f737a;&quot;&gt;    &lt;/span&gt;vector&amp;lt;items*&amp;gt; &lt;span style=&quot;color:#c77dbb;&quot;&gt;content&lt;/span&gt;;&lt;br&gt;    &lt;span style=&quot;color:#cf8e6d;&quot;&gt;int &lt;/span&gt;&lt;span style=&quot;color:#c77dbb;&quot;&gt;capmax &lt;/span&gt;= &lt;span style=&quot;color:#2aacb8;&quot;&gt;50&lt;/span&gt;;&lt;br&gt;&lt;span style=&quot;color:#cf8e6d;&quot;&gt;public&lt;/span&gt;:&lt;br&gt;    &lt;span style=&quot;color:#57aaf7;&quot;&gt;inventario&lt;/span&gt;(&lt;span style=&quot;color:#cf8e6d;&quot;&gt;const &lt;/span&gt;vector&amp;lt;items*&amp;gt;&amp;amp; content, &lt;span style=&quot;color:#cf8e6d;&quot;&gt;int &lt;/span&gt;capmax)&lt;br&gt;;&lt;br&gt;    &lt;span style=&quot;color:#cf8e6d;&quot;&gt;void &lt;/span&gt;&lt;span style=&quot;color:#57aaf7;&quot;&gt;agregarItem&lt;/span&gt;(items* item);&lt;br&gt;    &lt;span style=&quot;color:#cf8e6d;&quot;&gt;void &lt;/span&gt;&lt;span style=&quot;color:#57aaf7;&quot;&gt;eliminarItem&lt;/span&gt;(&lt;span style=&quot;color:#cf8e6d;&quot;&gt;int &lt;/span&gt;index);&lt;br&gt;    &lt;span style=&quot;color:#cf8e6d;&quot;&gt;void &lt;/span&gt;&lt;span style=&quot;color:#57aaf7;&quot;&gt;mostrarInventario&lt;/span&gt;() &lt;span style=&quot;color:#cf8e6d;&quot;&gt;const&lt;/span&gt;;&lt;br&gt;    &lt;span style=&quot;color:#cf8e6d;&quot;&gt;int &lt;/span&gt;&lt;span style=&quot;color:#57aaf7;&quot;&gt;getCantidad&lt;/span&gt;() &lt;span style=&quot;color:#cf8e6d;&quot;&gt;const&lt;/span&gt;;&lt;br&gt;    items* &lt;span style=&quot;color:#57aaf7;&quot;&gt;getItem&lt;/span&gt;(&lt;span style=&quot;color:#cf8e6d;&quot;&gt;int &lt;/span&gt;index) &lt;span style=&quot;color:#cf8e6d;&quot;&gt;const&lt;/span&gt;;&lt;br&gt;&lt;br&gt;&lt;br&gt;};&lt;br&gt;&lt;br&gt;&lt;br&gt;&lt;br&gt;&lt;span style=&quot;color:#b3ae60;&quot;&gt;#endif &lt;/span&gt;&lt;span style=&quot;color:#7a7e85;&quot;&gt;//INVENTARIO_H&lt;br&gt;&lt;/span&gt;&lt;/pre&gt;&lt;/div&gt;" style="text;whiteSpace=wrap;html=1;" vertex="1" parent="1">
          <mxGeometry x="-2060" y="210" width="450" height="410" as="geometry" />
        </mxCell>
        <mxCell id="eOPFmJKDIx5pttfgIMO1-33" style="edgeStyle=orthogonalEdgeStyle;rounded=0;orthogonalLoop=1;jettySize=auto;html=1;exitX=0;exitY=0.25;exitDx=0;exitDy=0;entryX=0.75;entryY=0;entryDx=0;entryDy=0;" edge="1" parent="1" source="eOPFmJKDIx5pttfgIMO1-18" target="eOPFmJKDIx5pttfgIMO1-25">
          <mxGeometry relative="1" as="geometry" />
        </mxCell>
        <mxCell id="eOPFmJKDIx5pttfgIMO1-36" style="edgeStyle=orthogonalEdgeStyle;rounded=0;orthogonalLoop=1;jettySize=auto;html=1;exitX=0;exitY=0.5;exitDx=0;exitDy=0;entryX=1;entryY=0.5;entryDx=0;entryDy=0;" edge="1" parent="1" source="eOPFmJKDIx5pttfgIMO1-18" target="eOPFmJKDIx5pttfgIMO1-13">
          <mxGeometry relative="1" as="geometry" />
        </mxCell>
        <mxCell id="eOPFmJKDIx5pttfgIMO1-18" value="&lt;div style=&quot;background-color:#1e1f22;color:#bcbec4&quot;&gt;&lt;pre style=&quot;font-family:&#39;JetBrains Mono&#39;,monospace;font-size:9,8pt;&quot;&gt;&lt;span style=&quot;color:#b3ae60;&quot;&gt;#ifndef &lt;/span&gt;TIENDA_H&lt;br&gt;&lt;span style=&quot;color:#b3ae60;&quot;&gt;#define &lt;/span&gt;TIENDA_H&lt;br&gt;&lt;br&gt;&lt;span style=&quot;color:#b3ae60;&quot;&gt;#include &lt;/span&gt;&lt;span style=&quot;color:#6aab73;&quot;&gt;&quot;armas.h&quot;&lt;br&gt;&lt;/span&gt;&lt;span style=&quot;color:#b3ae60;&quot;&gt;#include &lt;/span&gt;&lt;span style=&quot;color:#6aab73;&quot;&gt;&quot;armadura.h&quot;&lt;br&gt;&lt;/span&gt;&lt;span style=&quot;color:#b3ae60;&quot;&gt;#include &lt;/span&gt;&lt;span style=&quot;color:#6aab73;&quot;&gt;&quot;pociones.h&quot;&lt;br&gt;&lt;/span&gt;&lt;span style=&quot;color:#b3ae60;&quot;&gt;#include &lt;/span&gt;&lt;span style=&quot;color:#6aab73;&quot;&gt;&quot;heroes.h&quot;&lt;br&gt;&lt;/span&gt;&lt;span style=&quot;color:#b3ae60;&quot;&gt;#include &lt;/span&gt;&lt;span style=&quot;color:#6aab73;&quot;&gt;&quot;inventario.h&quot; &lt;/span&gt;&lt;span style=&quot;color:#7a7e85;&quot;&gt;// Necesario para usar tipo inventario&lt;br&gt;&lt;/span&gt;&lt;span style=&quot;color:#b3ae60;&quot;&gt;#include &lt;/span&gt;&lt;span style=&quot;color:#6aab73;&quot;&gt;&amp;lt;vector&amp;gt;&lt;br&gt;&lt;/span&gt;&lt;span style=&quot;color:#cf8e6d;&quot;&gt;using namespace &lt;/span&gt;std;&lt;br&gt;&lt;br&gt;&lt;span style=&quot;color:#cf8e6d;&quot;&gt;class &lt;/span&gt;tienda {&lt;br&gt;&lt;span style=&quot;color:#6f737a;&quot;&gt;private:&lt;br&gt;&lt;/span&gt;&lt;span style=&quot;color:#6f737a;&quot;&gt;    &lt;/span&gt;vector&amp;lt;armas*&amp;gt; &lt;span style=&quot;color:#c77dbb;&quot;&gt;armasDisponibles&lt;/span&gt;;&lt;br&gt;    vector&amp;lt;armadura*&amp;gt; &lt;span style=&quot;color:#c77dbb;&quot;&gt;armadurasDisponibles&lt;/span&gt;;&lt;br&gt;    vector&amp;lt;pociones*&amp;gt; &lt;span style=&quot;color:#c77dbb;&quot;&gt;pocionesDisponibles&lt;/span&gt;;&lt;br&gt;&lt;br&gt;&lt;span style=&quot;color:#cf8e6d;&quot;&gt;public&lt;/span&gt;:&lt;br&gt;    &lt;span style=&quot;color:#57aaf7;&quot;&gt;tienda&lt;/span&gt;();&lt;br&gt;&lt;br&gt;&lt;br&gt;    &lt;span style=&quot;color:#cf8e6d;&quot;&gt;void &lt;/span&gt;&lt;span style=&quot;color:#57aaf7;&quot;&gt;mostrarProductos&lt;/span&gt;(vector&amp;lt;heroes*&amp;gt;&amp;amp; equipo, inventario&amp;amp; inv);&lt;br&gt;    &lt;span style=&quot;color:#cf8e6d;&quot;&gt;void &lt;/span&gt;&lt;span style=&quot;color:#57aaf7;&quot;&gt;comprarArma&lt;/span&gt;(heroes* h, &lt;span style=&quot;color:#cf8e6d;&quot;&gt;int &lt;/span&gt;indice);&lt;br&gt;    &lt;span style=&quot;color:#cf8e6d;&quot;&gt;void &lt;/span&gt;&lt;span style=&quot;color:#57aaf7;&quot;&gt;comprarArmadura&lt;/span&gt;(heroes* h, &lt;span style=&quot;color:#cf8e6d;&quot;&gt;int &lt;/span&gt;indice);&lt;br&gt;    &lt;span style=&quot;color:#cf8e6d;&quot;&gt;void &lt;/span&gt;&lt;span style=&quot;color:#57aaf7;&quot;&gt;comprarPocion&lt;/span&gt;(heroes* h, &lt;span style=&quot;color:#cf8e6d;&quot;&gt;int &lt;/span&gt;indice);&lt;br&gt;    &lt;span style=&quot;color:#6f737a;&quot;&gt;;&lt;br&gt;&lt;/span&gt;&lt;span style=&quot;color:#6f737a;&quot;&gt;&lt;br&gt;&lt;/span&gt;&lt;span style=&quot;color:#6f737a;&quot;&gt;    &lt;/span&gt;&lt;span style=&quot;color:#cf8e6d;&quot;&gt;const &lt;/span&gt;vector&amp;lt;armas*&amp;gt;&amp;amp; &lt;span style=&quot;color:#57aaf7;&quot;&gt;getArmas&lt;/span&gt;() &lt;span style=&quot;color:#cf8e6d;&quot;&gt;const&lt;/span&gt;;&lt;br&gt;    &lt;span style=&quot;color:#cf8e6d;&quot;&gt;const &lt;/span&gt;vector&amp;lt;armadura*&amp;gt;&amp;amp; &lt;span style=&quot;color:#57aaf7;&quot;&gt;getArmaduras&lt;/span&gt;() &lt;span style=&quot;color:#cf8e6d;&quot;&gt;const&lt;/span&gt;;&lt;br&gt;    &lt;span style=&quot;color:#cf8e6d;&quot;&gt;const &lt;/span&gt;vector&amp;lt;pociones*&amp;gt;&amp;amp; &lt;span style=&quot;color:#57aaf7;&quot;&gt;getPociones&lt;/span&gt;() &lt;span style=&quot;color:#cf8e6d;&quot;&gt;const&lt;/span&gt;;&lt;br&gt;};&lt;br&gt;&lt;br&gt;&lt;span style=&quot;color:#b3ae60;&quot;&gt;#endif &lt;/span&gt;&lt;span style=&quot;color:#7a7e85;&quot;&gt;// TIENDA_H&lt;br&gt;&lt;/span&gt;&lt;/pre&gt;&lt;/div&gt;" style="text;whiteSpace=wrap;html=1;" vertex="1" parent="1">
          <mxGeometry x="-710" y="1820" width="520" height="520" as="geometry" />
        </mxCell>
        <mxCell id="eOPFmJKDIx5pttfgIMO1-31" style="edgeStyle=orthogonalEdgeStyle;rounded=0;orthogonalLoop=1;jettySize=auto;html=1;entryX=0.25;entryY=0;entryDx=0;entryDy=0;" edge="1" parent="1" source="eOPFmJKDIx5pttfgIMO1-25" target="eOPFmJKDIx5pttfgIMO1-30">
          <mxGeometry relative="1" as="geometry" />
        </mxCell>
        <mxCell id="eOPFmJKDIx5pttfgIMO1-25" value="&lt;div style=&quot;background-color:#1e1f22;color:#bcbec4&quot;&gt;&lt;pre style=&quot;font-family:&#39;JetBrains Mono&#39;,monospace;font-size:9,8pt;&quot;&gt;&lt;span style=&quot;color:#b3ae60;&quot;&gt;#ifndef &lt;/span&gt;JUEGO_H&lt;br&gt;&lt;span style=&quot;color:#b3ae60;&quot;&gt;#define &lt;/span&gt;JUEGO_H&lt;br&gt;&lt;br&gt;&lt;span style=&quot;color:#b3ae60;&quot;&gt;#include &lt;/span&gt;&lt;span style=&quot;color:#6aab73;&quot;&gt;&quot;heroes.h&quot;&lt;br&gt;&lt;/span&gt;&lt;span style=&quot;color:#b3ae60;&quot;&gt;#include &lt;/span&gt;&lt;span style=&quot;color:#6aab73;&quot;&gt;&quot;inventario.h&quot;&lt;br&gt;&lt;/span&gt;&lt;span style=&quot;color:#b3ae60;&quot;&gt;#include &lt;/span&gt;&lt;span style=&quot;color:#6aab73;&quot;&gt;&quot;mazmorra.h&quot;&lt;br&gt;&lt;/span&gt;&lt;span style=&quot;color:#b3ae60;&quot;&gt;#include &lt;/span&gt;&lt;span style=&quot;color:#6aab73;&quot;&gt;&quot;tienda.h&quot;&lt;br&gt;&lt;/span&gt;&lt;span style=&quot;color:#b3ae60;&quot;&gt;#include &lt;/span&gt;&lt;span style=&quot;color:#6aab73;&quot;&gt;&amp;lt;vector&amp;gt;&lt;br&gt;&lt;/span&gt;&lt;span style=&quot;color:#cf8e6d;&quot;&gt;using namespace &lt;/span&gt;std;&lt;br&gt;&lt;br&gt;&lt;span style=&quot;color:#cf8e6d;&quot;&gt;class &lt;/span&gt;juego {&lt;br&gt;&lt;span style=&quot;color:#6f737a;&quot;&gt;private:&lt;br&gt;&lt;/span&gt;&lt;span style=&quot;color:#6f737a;&quot;&gt;    &lt;/span&gt;vector&amp;lt;heroes*&amp;gt; &lt;span style=&quot;color:#c77dbb;&quot;&gt;equipo&lt;/span&gt;;&lt;br&gt;    inventario &lt;span style=&quot;color:#c77dbb;&quot;&gt;inventarioGeneral&lt;/span&gt;;&lt;br&gt;    mazmorra* &lt;span style=&quot;color:#c77dbb;&quot;&gt;dungeon&lt;/span&gt;;&lt;br&gt;    tienda &lt;span style=&quot;color:#c77dbb;&quot;&gt;tiendA&lt;/span&gt;;&lt;br&gt;&lt;br&gt;&lt;span style=&quot;color:#cf8e6d;&quot;&gt;public&lt;/span&gt;:&lt;br&gt;    &lt;span style=&quot;color:#57aaf7;&quot;&gt;juego&lt;/span&gt;();&lt;br&gt;    &lt;span style=&quot;color:#57aaf7;&quot;&gt;~juego&lt;/span&gt;();&lt;br&gt;    &lt;span style=&quot;color:#cf8e6d;&quot;&gt;void &lt;/span&gt;&lt;span style=&quot;color:#57aaf7;&quot;&gt;iniciarJuego&lt;/span&gt;();&lt;br&gt;    &lt;span style=&quot;color:#cf8e6d;&quot;&gt;void &lt;/span&gt;&lt;span style=&quot;color:#57aaf7;&quot;&gt;seleccionarHeroes&lt;/span&gt;();&lt;br&gt;    &lt;span style=&quot;color:#cf8e6d;&quot;&gt;void &lt;/span&gt;&lt;span style=&quot;color:#57aaf7;&quot;&gt;jugarMazmorra&lt;/span&gt;();&lt;br&gt;    &lt;span style=&quot;color:#cf8e6d;&quot;&gt;void &lt;/span&gt;&lt;span style=&quot;color:#57aaf7;&quot;&gt;loot&lt;/span&gt;();&lt;br&gt;    &lt;span style=&quot;color:#cf8e6d;&quot;&gt;void &lt;/span&gt;&lt;span style=&quot;color:#57aaf7;&quot;&gt;avanzarTurno&lt;/span&gt;();&lt;br&gt;    inventario&amp;amp; &lt;span style=&quot;color:#57aaf7;&quot;&gt;getInventario&lt;/span&gt;();&lt;br&gt;    vector&amp;lt;string&amp;gt; &lt;span style=&quot;color:#57aaf7;&quot;&gt;ambientes&lt;/span&gt;() &lt;span style=&quot;color:#cf8e6d;&quot;&gt;const&lt;/span&gt;;&lt;br&gt;&lt;br&gt;&lt;br&gt;};&lt;br&gt;&lt;br&gt;&lt;span style=&quot;color:#b3ae60;&quot;&gt;#endif &lt;/span&gt;&lt;span style=&quot;color:#7a7e85;&quot;&gt;// JUEGO_H&lt;br&gt;&lt;/span&gt;&lt;/pre&gt;&lt;/div&gt;" style="text;whiteSpace=wrap;html=1;" vertex="1" parent="1">
          <mxGeometry x="-2050" y="2020" width="300" height="510" as="geometry" />
        </mxCell>
        <mxCell id="eOPFmJKDIx5pttfgIMO1-34" style="edgeStyle=orthogonalEdgeStyle;rounded=0;orthogonalLoop=1;jettySize=auto;html=1;entryX=0.374;entryY=-0.008;entryDx=0;entryDy=0;entryPerimeter=0;" edge="1" parent="1" source="eOPFmJKDIx5pttfgIMO1-28" target="eOPFmJKDIx5pttfgIMO1-25">
          <mxGeometry relative="1" as="geometry">
            <mxPoint x="-1240" y="1639.9999999999995" as="targetPoint" />
            <Array as="points">
              <mxPoint x="-1938" y="1650" />
            </Array>
          </mxGeometry>
        </mxCell>
        <mxCell id="eOPFmJKDIx5pttfgIMO1-28" value="&lt;div style=&quot;background-color:#1e1f22;color:#bcbec4&quot;&gt;&lt;pre style=&quot;font-family:&#39;JetBrains Mono&#39;,monospace;font-size:9,8pt;&quot;&gt;&lt;span style=&quot;color:#b3ae60;&quot;&gt;#ifndef &lt;/span&gt;MAZMORRA_H&lt;br&gt;&lt;span style=&quot;color:#b3ae60;&quot;&gt;#define &lt;/span&gt;MAZMORRA_H&lt;br&gt;&lt;br&gt;&lt;span style=&quot;color:#b3ae60;&quot;&gt;#include &lt;/span&gt;&lt;span style=&quot;color:#6aab73;&quot;&gt;&quot;villanos.h&quot;&lt;br&gt;&lt;/span&gt;&lt;span style=&quot;color:#b3ae60;&quot;&gt;#include &lt;/span&gt;&lt;span style=&quot;color:#6aab73;&quot;&gt;&amp;lt;vector&amp;gt;&lt;br&gt;&lt;/span&gt;&lt;span style=&quot;color:#cf8e6d;&quot;&gt;using namespace &lt;/span&gt;std;&lt;br&gt;&lt;br&gt;&lt;span style=&quot;color:#cf8e6d;&quot;&gt;class &lt;/span&gt;mazmorra {&lt;br&gt;&lt;span style=&quot;color:#6f737a;&quot;&gt;private:&lt;br&gt;&lt;/span&gt;&lt;span style=&quot;color:#6f737a;&quot;&gt;    &lt;/span&gt;&lt;span style=&quot;color:#cf8e6d;&quot;&gt;int &lt;/span&gt;&lt;span style=&quot;color:#c77dbb;&quot;&gt;salaActual&lt;/span&gt;;&lt;br&gt;    &lt;span style=&quot;color:#cf8e6d;&quot;&gt;int &lt;/span&gt;&lt;span style=&quot;color:#c77dbb;&quot;&gt;totalSalas&lt;/span&gt;;&lt;br&gt;    vector&amp;lt;villanos*&amp;gt; &lt;span style=&quot;color:#c77dbb;&quot;&gt;enemigos&lt;/span&gt;;&lt;br&gt;&lt;br&gt;&lt;span style=&quot;color:#cf8e6d;&quot;&gt;public&lt;/span&gt;:&lt;br&gt;    &lt;span style=&quot;color:#57aaf7;&quot;&gt;mazmorra&lt;/span&gt;();&lt;br&gt;    &lt;span style=&quot;color:#cf8e6d;&quot;&gt;void &lt;/span&gt;&lt;span style=&quot;color:#57aaf7;&quot;&gt;avanzarSala&lt;/span&gt;();&lt;br&gt;    &lt;span style=&quot;color:#cf8e6d;&quot;&gt;int &lt;/span&gt;&lt;span style=&quot;color:#57aaf7;&quot;&gt;getSalaActual&lt;/span&gt;() &lt;span style=&quot;color:#cf8e6d;&quot;&gt;const&lt;/span&gt;;&lt;br&gt;    &lt;span style=&quot;color:#cf8e6d;&quot;&gt;bool &lt;/span&gt;&lt;span style=&quot;color:#57aaf7;&quot;&gt;esFinal&lt;/span&gt;() &lt;span style=&quot;color:#cf8e6d;&quot;&gt;const&lt;/span&gt;;&lt;br&gt;&lt;br&gt;    villanos* &lt;span style=&quot;color:#57aaf7;&quot;&gt;enemigoActual&lt;/span&gt;() &lt;span style=&quot;color:#cf8e6d;&quot;&gt;const&lt;/span&gt;;&lt;br&gt;    &lt;span style=&quot;color:#cf8e6d;&quot;&gt;void &lt;/span&gt;&lt;span style=&quot;color:#57aaf7;&quot;&gt;generarMazmorra&lt;/span&gt;();&lt;br&gt;};&lt;br&gt;&lt;br&gt;&lt;span style=&quot;color:#b3ae60;&quot;&gt;#endif &lt;/span&gt;&lt;span style=&quot;color:#7a7e85;&quot;&gt;// MAZMORRA_H&lt;br&gt;&lt;/span&gt;&lt;/pre&gt;&lt;/div&gt;" style="text;whiteSpace=wrap;html=1;" vertex="1" parent="1">
          <mxGeometry x="190" y="1330" width="340" height="390" as="geometry" />
        </mxCell>
        <mxCell id="eOPFmJKDIx5pttfgIMO1-30" value="&lt;div style=&quot;background-color:#1e1f22;color:#bcbec4&quot;&gt;&lt;pre style=&quot;font-family:&#39;JetBrains Mono&#39;,monospace;font-size:9,8pt;&quot;&gt;&lt;span style=&quot;color:#b3ae60;&quot;&gt;#ifndef &lt;/span&gt;MENU_H&lt;br&gt;&lt;span style=&quot;color:#b3ae60;&quot;&gt;#define &lt;/span&gt;MENU_H&lt;br&gt;&lt;br&gt;&lt;span style=&quot;color:#b3ae60;&quot;&gt;#include &lt;/span&gt;&lt;span style=&quot;color:#6aab73;&quot;&gt;&quot;juego.h&quot;&lt;br&gt;&lt;/span&gt;&lt;span style=&quot;color:#6aab73;&quot;&gt;&lt;br&gt;&lt;/span&gt;&lt;span style=&quot;color:#cf8e6d;&quot;&gt;using namespace &lt;/span&gt;std;&lt;br&gt;&lt;br&gt;&lt;span style=&quot;color:#cf8e6d;&quot;&gt;class &lt;/span&gt;menu {&lt;br&gt;&lt;span style=&quot;color:#6f737a;&quot;&gt;private:&lt;br&gt;&lt;/span&gt;&lt;span style=&quot;color:#6f737a;&quot;&gt;    &lt;/span&gt;juego &lt;span style=&quot;color:#c77dbb;&quot;&gt;juegoPrincipal&lt;/span&gt;;&lt;br&gt;&lt;br&gt;&lt;span style=&quot;color:#cf8e6d;&quot;&gt;public&lt;/span&gt;:&lt;br&gt;    &lt;span style=&quot;color:#57aaf7;&quot;&gt;menu&lt;/span&gt;();&lt;br&gt;    &lt;span style=&quot;color:#cf8e6d;&quot;&gt;void &lt;/span&gt;&lt;span style=&quot;color:#57aaf7;&quot;&gt;mostrarMenu&lt;/span&gt;();&lt;br&gt;    &lt;span style=&quot;color:#cf8e6d;&quot;&gt;void &lt;/span&gt;&lt;span style=&quot;color:#57aaf7;&quot;&gt;iniciarNuevoJuego&lt;/span&gt;();&lt;br&gt;&lt;br&gt;};&lt;br&gt;&lt;br&gt;&lt;span style=&quot;color:#b3ae60;&quot;&gt;#endif &lt;/span&gt;&lt;span style=&quot;color:#7a7e85;&quot;&gt;// MENU_H&lt;br&gt;&lt;/span&gt;&lt;/pre&gt;&lt;/div&gt;" style="text;whiteSpace=wrap;html=1;" vertex="1" parent="1">
          <mxGeometry x="-1360" y="2410" width="240" height="320" as="geometry" />
        </mxCell>
      </root>
    </mxGraphModel>
  </diagram>
</mxfile>
